<?xml version="1.0" encoding="UTF-8"?>
<svg width="35px" height="27px" viewBox="0 0 35 27" version="1.1" xmlns="http://www.w3.org/2000/svg" xmlns:xlink="http://www.w3.org/1999/xlink">
    <!-- Generator: Sketch 64 (93537) - https://sketch.com -->
    <title>icon/conversation copy</title>
    <desc>Created with Sketch.</desc>
    <g id="icon/conversation-copy" stroke="none" stroke-width="1" fill="none" fill-rule="evenodd" stroke-linejoin="round">
        <g id="icon/conversation" transform="translate(1.000000, 1.000000)" stroke="#000000" stroke-width="2">
            <path d="M13.3202635,19.2086106 C12.3805361,19.5089835 11.7350257,19.5773221 10.7154123,19.5777108 C9.22668309,19.5815344 7.75808872,19.2389 6.4292474,18.5777155 L0,20.6888167 L2.14308247,14.355513 C1.4718816,13.046502 1.12405662,11.5998234 1.12793814,10.1333105 C1.12934306,6.55676326 3.18154378,3.28783228 6.4292474,1.68890545 C7.75808872,1.02772091 9.22668309,0.685086523 10.7154123,0.688756918 L11.2793814,0.688756918 C14.7064109,0.875155103 16.753356,2.2640698 18.6355075,4.98310085" id="Shape" stroke-linecap="round"></path>
            <path d="M32,14.1332779 C32.003792,15.5997953 31.6611565,17.0464784 30.9999699,18.3554934 C29.4010381,21.5547414 26.1320971,23.5763234 22.5555388,23.5777074 C21.0890214,23.581531 19.6423383,23.2388956 18.3333233,22.5777089 L12,24.6888167 L14.1111078,18.3554934 C13.4499211,17.0464784 13.1072857,15.5997953 13.1111094,14.1332779 C13.1124934,10.5567196 15.1340753,7.28777854 18.3333233,5.68884677 C19.6423383,5.0276602 21.0890214,4.68502475 22.5555388,4.6888167 L23.1110935,4.6888167 C27.9064297,4.95340315 31.7354135,8.78238697 32,13.5777232 L32,14.1332779 Z" id="Shape" transform="translate(22.000000, 14.688817) scale(-1, 1) translate(-22.000000, -14.688817) "></path>
        </g>
    </g>
</svg>