<?xml version="1.0" encoding="UTF-8"?>
<svg width="40px" height="40px" viewBox="0 0 40 40" version="1.1" xmlns="http://www.w3.org/2000/svg" xmlns:xlink="http://www.w3.org/1999/xlink">
    <!-- Generator: Sketch 64 (93537) - https://sketch.com -->
    <title>icon / id copy</title>
    <desc>Created with Sketch.</desc>
    <defs>
        <path d="M27.76,25.3841912 L27.76,25.4613971 C27.76,26.3845588 27.16,27 26.26,27 C25.36,27 24.76,26.3845588 24.76,25.4613971 L24.76,25.3841912 C24.76,22.7685662 22.81,21.7683824 20.26,21.7683824 L8.26,21.7683824 C5.71,21.7683824 3.76,22.7685662 3.76,25.3841912 L3.76,26.3611548 C3.76,27.2843165 3.16,27 2.26,27 C1.36,27 0.76,26.3845588 0.76,25.4613971 L0.76,25.3841912 C0.76,21.0761029 4.06,18.6911765 8.26,18.6911765 L20.26,18.6911765 C24.46,18.6911765 27.76,21.0761029 27.76,25.3841912 Z M6.76,7.69301471 C6.76,3.38492647 10.06,0 14.26,0 C18.46,0 21.76,3.38492647 21.76,7.69301471 C21.76,12.0011029 18.46,15.3860294 14.26,15.3860294 C10.06,15.3860294 6.76,12.0011029 6.76,7.69301471 Z M9.76,7.69301471 C9.76,10.3086397 11.71,12.3088235 14.26,12.3088235 C16.81,12.3088235 18.76,10.3086397 18.76,7.69301471 C18.76,5.07738971 16.81,3.07720588 14.26,3.07720588 C11.71,3.07720588 9.76,5.07738971 9.76,7.69301471 Z" id="path-1"></path>
    </defs>
    <g id="icon-/-id-copy" stroke="none" stroke-width="1" fill="none" fill-rule="evenodd">
        <g id="user" transform="translate(6.000000, 7.000000)">
            <mask id="mask-2" fill="white">
                <use xlink:href="#path-1"></use>
            </mask>
            <use id="Mask" fill="#000000" fill-rule="nonzero" xlink:href="#path-1"></use>
        </g>
        <circle id="Oval" stroke="#000000" stroke-width="2.7" cx="20" cy="20" r="18"></circle>
    </g>
</svg>