<svg xmlns="http://www.w3.org/2000/svg" xmlns:xlink="http://www.w3.org/1999/xlink" width="94" height="27" version="1.1" viewBox="0 0 94 27"><title>Yolo</title><desc>Created with Sketch.</desc><g id="Yolo" fill="none" fill-rule="evenodd" stroke="none" stroke-width="1"><g id="Group" fill-rule="nonzero" transform="translate(56.000000, 15.500000) rotate(-1.000000) translate(-56.000000, -15.500000) translate(2.000000, -3.000000)"><path id="YOLO" fill="#212CD6" d="M15.7282809,29.0723723 L16.1765231,28.9800872 C16.1765231,29.0416106 16.2072848,29.0723723 16.2688083,29.0723723 C16.4445895,29.0723723 16.5324802,29.0108489 16.5324802,28.887802 L16.5324802,28.887802 L16.1765231,28.531845 L16.1765231,22.0323333 C16.1765231,21.9268645 16.1149997,21.8653411 15.9919528,21.847763 L15.9919528,21.847763 L14.5681247,21.847763 L14.1198825,21.7686614 C14.1198825,21.8213958 14.0935153,21.847763 14.0407809,21.847763 C13.9353122,21.7950286 13.8166598,21.7686614 13.6848239,21.7686614 L13.6848239,21.7686614 L13.6848239,21.6763763 L15.5568942,21.6763763 C15.671152,21.6763763 15.7282809,21.6148528 15.7282809,21.4918059 L15.7282809,21.4918059 L15.7282809,20.872177 L15.1877536,20.51622 L15.1877536,18.0245208 L15.2800387,17.8399505 L15.4646091,17.9322356 L15.9128512,17.9322356 C16.1677341,17.9322356 16.4050387,17.8707122 16.6247653,17.7476653 C16.6247653,17.6509856 16.5632419,17.5938567 16.440195,17.5762786 L16.440195,17.5762786 L15.2800387,17.5762786 C15.2800387,17.4795989 16.8269137,15.0713958 19.9206637,10.3516692 L19.9206637,10.3516692 L20.4480075,10.3516692 L20.9885348,9.82432547 L21.9641208,9.82432547 L22.1486911,9.73204032 C22.1486911,9.62657157 22.0871677,9.56504813 21.9641208,9.54747 L21.9641208,9.54747 L21.1599216,9.54747 C21.6960544,8.53672782 22.6760348,7.05137625 24.099863,5.09141532 C24.099863,4.99473563 24.0427341,4.93760672 23.9284762,4.9200286 L23.9284762,4.9200286 L17.0598239,4.9200286 C15.1613864,7.83799735 14.2121677,9.32334891 14.2121677,9.37608328 C14.2121677,9.4903411 14.2736911,9.54747 14.396738,9.54747 L14.396738,9.54747 L15.1877536,9.54747 L15.1877536,9.73204032 L14.752695,9.82432547 L14.3044528,9.73204032 C14.0407809,9.79356375 13.8034762,9.969345 13.5925387,10.2593841 C13.1267184,10.2593841 12.7399997,10.5582122 12.4323825,11.1558684 C12.64332,11.6920013 12.8191012,11.9600677 12.9597262,11.9600677 C12.9597262,12.0215911 12.8147067,12.3467864 12.5246677,12.9356536 L12.5246677,12.9356536 L12.3400973,12.9356536 L10.8239841,10.3516692 C10.9206637,10.3516692 11.0393161,10.2945403 11.1799411,10.1802825 C11.1799411,10.1187591 11.1535739,10.0264739 11.1008395,9.90342703 L11.1008395,9.90342703 L11.1008395,9.82432547 L12.0764255,9.82432547 L12.0764255,9.54747 L10.9162692,9.54747 C10.8195895,9.53868094 10.6130466,9.27500907 10.2966403,8.75645438 L10.2966403,8.75645438 L9.66382781,8.83555594 L9.30787078,8.83555594 C9.13208953,8.74766532 9.0441989,8.65977469 9.0441989,8.57188407 L9.0441989,8.57188407 L9.0441989,8.47959891 C9.57154265,8.41807547 9.89673797,8.36094657 10.0197848,8.30821219 C9.08814422,6.65586844 8.34546844,5.52647391 7.7917575,4.9200286 L7.7917575,4.9200286 L0.844003592,4.9200286 C0.844003592,5.15733328 1.55591765,6.2559661 2.97974578,8.21592703 C2.97974578,8.33018485 2.62378875,8.41807547 1.91187469,8.47959891 C2.06128875,8.7169036 2.17994109,8.83555594 2.26783172,8.83555594 L2.26783172,8.83555594 L3.25660125,8.83555594 L3.87623015,9.54747 L4.85181609,9.54747 C4.97486297,9.54747 5.0363864,9.60899344 5.0363864,9.73204032 L5.0363864,9.73204032 L4.58814422,9.82432547 L4.04761687,9.82432547 L4.13990203,10.2593841 C4.00806609,10.2593841 3.88941375,10.2901458 3.783945,10.3516692 C6.62281219,14.7989348 8.25757781,17.207138 8.68824187,17.5762786 L8.68824187,17.5762786 L9.13648406,17.5762786 L10.0197848,17.6685638 C10.0197848,17.7652434 9.87476531,17.8531341 9.58472625,17.9322356 C9.58472625,17.8707122 9.55396453,17.8399505 9.49244109,17.8399505 L9.49244109,17.8399505 L8.87281219,17.8399505 L8.59595672,18.0245208 L8.68824187,18.1959075 L8.68824187,19.8965911 L8.59595672,20.51622 C9.01783172,20.6744231 9.22876922,20.7930755 9.22876922,20.872177 L9.22876922,20.872177 L9.22876922,21.4918059 C9.22876922,21.6148528 9.16724578,21.6763763 9.0441989,21.6763763 L9.0441989,21.6763763 L7.07984344,21.6763763 L6.90845672,21.7686614 C6.90845672,21.8829192 6.96558562,21.9400481 7.07984344,21.9400481 L7.07984344,21.9400481 L7.17212859,21.9400481 L7.3566989,21.847763 L7.3566989,21.9400481 C7.41822234,21.9400481 7.50611297,21.9092864 7.62037078,21.847763 L7.62037078,21.847763 L8.14771453,21.9400481 L9.49244109,21.9400481 C9.66822234,22.0367278 9.75611297,22.1246184 9.75611297,22.20372 L9.75611297,22.20372 L9.75611297,28.531845 C10.0549411,28.7955169 10.2043552,28.9449309 10.2043552,28.9800872 C10.2658786,28.9800872 10.2966403,28.9493255 10.2966403,28.887802 C10.4021091,28.9317473 10.815195,28.9932708 11.5358981,29.0723723 C11.5358981,29.0108489 11.5666598,28.9800872 11.6281833,28.9800872 C11.6281833,29.0416106 11.658945,29.0723723 11.7204684,29.0723723 L11.7204684,29.0723723 L15.7282809,29.0723723 Z M35.0936471,29.0064544 C36.209858,29.0064544 37.4535104,28.8306731 38.8246041,28.4791106 C41.6371041,27.406845 43.7157174,25.7632903 45.060444,23.5484466 C45.060444,23.4869231 44.7440377,23.4561614 44.1112252,23.4561614 C44.1112252,23.3594817 44.1683541,23.3023528 44.282612,23.2847747 L44.282612,23.2847747 L45.1395455,23.2847747 L45.4955026,23.0211028 L47.1434518,23.0211028 L47.3148385,22.9420013 C48.4134713,20.9908294 48.9627877,19.0528411 48.9627877,17.1280364 C48.9627877,16.9962005 48.7870065,16.9127044 48.435444,16.8775481 L48.435444,16.8775481 L48.3563424,16.8775481 L48.1717721,16.9566497 C48.1717721,16.9039153 48.1454049,16.8775481 48.0926705,16.8775481 L48.0926705,16.8775481 L47.2225534,16.8775481 C47.1258737,16.8775481 47.0687448,16.8204192 47.0511666,16.7061614 C47.0511666,15.6075286 46.9369088,15.0582122 46.7083932,15.0582122 L46.7083932,15.0582122 L46.5370065,15.0582122 C46.3436471,15.0582122 46.1986276,15.0845794 46.1019479,15.1373138 C45.970112,15.0845794 45.4779245,15.0582122 44.6253854,15.0582122 L44.6253854,15.0582122 L44.6253854,14.965927 L46.7083932,14.965927 L46.9588815,14.7945403 C46.3084909,12.3248138 45.3285104,10.3604583 44.0189401,8.90147391 L44.0189401,8.90147391 L44.0189401,8.82237235 C44.2122995,8.82237235 44.357319,8.79161063 44.4539987,8.73008719 C44.4539987,8.79161063 44.4803659,8.82237235 44.5331002,8.82237235 L44.5331002,8.82237235 L44.9681588,8.82237235 C45.0824166,8.82237235 45.1395455,8.76524344 45.1395455,8.65098563 L45.1395455,8.65098563 L45.1395455,8.55870047 L44.7176705,8.46641532 L43.7552682,8.46641532 C43.4037057,8.23789969 43.0565377,8.12364188 42.7137643,8.12364188 C41.3163034,7.02500907 40.5121041,6.47569266 40.3011666,6.47569266 L40.3011666,6.47569266 L40.3011666,6.30430594 C40.4242135,6.30430594 40.5384713,6.27793875 40.6439401,6.22520438 C39.228901,5.35508719 37.4974557,4.9200286 35.4496041,4.9200286 C32.4876901,4.9200286 30.2332955,5.38145438 28.6864205,6.30430594 L28.6864205,6.30430594 L27.7372018,6.30430594 C26.5506784,7.02500907 25.7420846,7.57432547 25.3114205,7.95225516 C25.3114205,8.06651297 25.4256784,8.12364188 25.654194,8.12364188 L25.654194,8.12364188 L25.5750924,8.2950286 L25.654194,8.46641532 L26.0892526,8.38731375 L26.1815377,8.38731375 C26.3309518,8.38731375 26.5023385,8.44444266 26.6956979,8.55870047 C26.6956979,8.73448172 26.3221627,8.82237235 25.5750924,8.82237235 C25.1532174,8.82237235 24.6873971,9.16954032 24.1776315,9.86387625 C22.850483,11.8941497 22.1034127,13.9112395 21.9364205,15.9151458 C21.9364205,15.9766692 21.9627877,16.0645598 22.0155221,16.1788177 C22.0770455,16.1788177 22.1649362,16.1524505 22.279194,16.0997161 C22.3934518,16.1524505 22.4813424,16.1788177 22.5428659,16.1788177 L22.5428659,16.1788177 L22.5428659,16.5215911 C22.0770455,16.5831145 21.8441354,16.6710052 21.8441354,16.785263 C21.8441354,16.8995208 21.9012643,16.9566497 22.0155221,16.9566497 L22.0155221,16.9566497 L23.4920846,16.9566497 C23.7118112,17.3609466 23.8568307,17.563095 23.9271432,17.563095 L23.9271432,17.563095 L27.0384713,17.563095 C27.1527291,17.563095 27.209858,17.6202239 27.209858,17.7344817 L27.209858,17.7344817 L27.209858,17.8267669 L25.9178659,17.8267669 C25.513569,17.8267669 24.876362,17.8575286 24.0062448,17.919052 C24.0062448,17.8575286 23.9798776,17.8267669 23.9271432,17.8267669 L23.9271432,17.8267669 L23.834858,17.9981536 L23.834858,18.2618255 C23.9227487,19.6768645 24.4149362,21.2369231 25.3114205,22.9420013 L25.3114205,22.9420013 L24.876362,23.0211028 L23.7557565,23.0211028 C23.6327096,23.0211028 23.5711862,23.1089934 23.5711862,23.2847747 L23.5711862,23.2847747 L22.7142526,23.2847747 L22.7142526,23.4561614 L23.4920846,23.4561614 C23.6239205,23.4561614 23.7381784,23.4869231 23.834858,23.5484466 C24.5116159,24.5064544 25.4081002,25.4556731 26.5243112,26.3961028 C27.9657174,27.6441497 29.9564401,28.4835052 32.4964791,28.9141692 C32.5580026,28.9141692 32.6458932,28.8834075 32.760151,28.8218841 C33.0062448,28.9449309 33.4676705,29.0064544 34.1444284,29.0064544 L34.1444284,29.0064544 L35.0936471,29.0064544 Z M34.4872018,23.89122 C34.1356393,23.89122 33.4456979,23.7462005 32.4173776,23.4561614 L32.4173776,23.4561614 L31.3758737,23.4561614 L31.3758737,23.2847747 L31.8900338,23.2847747 L31.8900338,23.1924895 L31.8109323,23.0211028 L33.0238229,23.0211028 L33.1952096,22.9420013 C33.1952096,22.8628997 32.8744088,22.6036223 32.2328073,22.1641692 C31.072651,21.0303802 30.3519479,19.7559661 30.0706979,18.340927 L30.0706979,18.340927 L30.0706979,17.919052 C31.4769479,17.8575286 32.2855416,17.8267669 32.4964791,17.8267669 L32.4964791,17.8267669 L32.9315377,17.919052 C32.9315377,17.8575286 32.9622995,17.8267669 33.0238229,17.8267669 C33.0853463,17.8267669 33.1688424,17.8575286 33.2743112,17.919052 C33.388569,17.919052 33.4456979,17.8575286 33.4456979,17.7344817 L33.4456979,17.7344817 L33.4456979,17.563095 L32.760151,17.563095 C32.1537057,17.563095 31.2308541,17.5367278 29.9915963,17.4839934 C29.9124948,17.0796966 29.8246041,16.8775481 29.7279245,16.8775481 L29.7279245,16.8775481 L28.1722604,16.8775481 L28.1722604,16.6138763 L28.5941354,16.6138763 C28.7171823,16.6138763 28.7787057,16.5567473 28.7787057,16.4424895 L28.7787057,16.4424895 L28.7787057,16.2711028 L28.251362,15.9151458 L28.251362,15.7437591 C28.251362,15.4361419 28.4535104,14.7725677 28.8578073,13.7530364 C30.369526,11.2745208 32.3338815,10.035263 34.7508737,10.035263 C35.5770455,10.035263 36.6449166,10.4395598 37.954487,11.2481536 C39.1410104,12.0743255 40.006733,13.2564544 40.5516549,14.7945403 L40.5516549,14.7945403 L40.5516549,14.8868255 L39.2596627,14.8868255 C38.8553659,14.8868255 38.2181588,14.9131927 37.3480416,14.965927 L37.3480416,14.965927 L37.3480416,15.1373138 L40.3011666,15.1373138 L40.7230416,15.2295989 C40.7230416,16.3809661 40.841694,16.9566497 41.0789987,16.9566497 L41.0789987,16.9566497 L41.685444,16.9566497 L41.8568307,16.8775481 C42.4281198,16.9478606 42.7137643,17.0313567 42.7137643,17.1280364 L42.7137643,17.1280364 L42.7137643,17.8267669 C42.7137643,17.9937591 42.5423776,18.6573333 42.1996041,19.8174895 C41.3119088,21.4698333 40.3011666,22.5377044 39.1673776,23.0211028 C39.1058541,23.0211028 39.0179635,22.9947356 38.9037057,22.9420013 C38.807026,22.9947356 38.6927682,23.0211028 38.5609323,23.0211028 L38.5609323,23.0211028 L37.6908151,23.0211028 C36.9437448,23.1968841 36.5394479,23.2847747 36.4779245,23.2847747 L36.4779245,23.2847747 L35.5287057,23.2847747 L35.5287057,23.4561614 L35.9637643,23.4561614 C36.0780221,23.4561614 36.135151,23.5132903 36.135151,23.6275481 C35.3705026,23.8033294 34.8211862,23.89122 34.4872018,23.89122 Z M23.2284127,17.8267669 L23.3997995,17.7344817 C23.3997995,17.637802 23.3426705,17.5806731 23.2284127,17.563095 L23.2284127,17.563095 L22.279194,17.563095 L22.279194,17.8267669 L23.2284127,17.8267669 Z M33.0238229,19.8174895 C33.1380807,19.8174895 33.1952096,19.7603606 33.1952096,19.6461028 L33.1952096,19.6461028 L33.1952096,19.3824309 C33.1952096,19.2857513 33.1380807,19.2286223 33.0238229,19.2110442 L33.0238229,19.2110442 L32.9315377,19.2110442 C32.834858,19.2110442 32.7777291,19.2681731 32.760151,19.3824309 L32.760151,19.3824309 L32.760151,19.6461028 C32.760151,19.7603606 32.8172799,19.8174895 32.9315377,19.8174895 L32.9315377,19.8174895 L33.0238229,19.8174895 Z M23.1493112,20.7667083 L23.3997995,20.5953216 L23.3206979,20.160263 L22.7933541,20.160263 L22.6219674,20.2525481 C22.6834909,20.5953216 22.7713815,20.7667083 22.8856393,20.7667083 L22.8856393,20.7667083 L23.1493112,20.7667083 Z M63.9248336,29.1514739 C64.0478805,29.1514739 64.1094039,29.0899505 64.1094039,28.9669036 L64.1094039,28.9669036 L64.1094039,28.1627044 L64.0171188,27.9913177 L63.4765914,28.0704192 C63.1601852,28.0176848 62.9800094,27.9913177 62.9360641,27.9913177 L62.9360641,27.9913177 L62.9360641,27.8067473 C63.1382125,27.8067473 63.2876266,27.7759856 63.3843063,27.7144622 L63.3843063,27.7144622 L63.9248336,27.8067473 C64.0478805,27.8067473 64.1094039,27.7496184 64.1094039,27.6353606 L64.1094039,27.6353606 L64.1094039,24.9459075 L64.1885055,24.4976653 L64.0171188,24.4053802 L57.2934859,24.4053802 L56.3970016,24.313095 C56.3970016,24.3746184 56.3398727,24.4053802 56.2256148,24.4053802 C56.1201461,24.4053802 56.0586227,24.3438567 56.0410445,24.2208098 L56.0410445,24.2208098 L56.0410445,18.8550872 C56.0410445,18.7584075 55.8345016,18.6661223 55.4214156,18.5782317 L55.4214156,18.5782317 L55.5005172,18.406845 L55.5005172,9.08604422 C55.5005172,8.98936453 55.4433883,8.93223563 55.3291305,8.9146575 L55.3291305,8.9146575 L54.3403609,8.9146575 L54.3403609,8.73008719 C54.3403609,8.6334075 54.4018844,8.5762786 54.5249313,8.55870047 L54.5249313,8.55870047 L55.3291305,8.55870047 L56.0410445,8.01817313 L56.0410445,6.13291922 C56.0410445,6.01866141 55.8916305,5.9615325 55.5928023,5.9615325 C55.5312789,5.24082938 55.4433883,4.88047782 55.3291305,4.88047782 L55.3291305,4.88047782 L49.146025,4.88047782 C49.0493453,4.88047782 48.9922164,4.94200125 48.9746383,5.06504813 L48.9746383,5.06504813 L48.9746383,5.86924735 C49.3877242,5.86924735 49.5942672,6.0450286 49.5942672,6.3965911 L49.5942672,6.3965911 L49.5942672,8.01817313 C49.5942672,8.13243094 49.5063766,8.18955985 49.3305953,8.18955985 C48.9262984,8.53233328 48.4472945,8.71250907 47.8935836,8.73008719 L47.8935836,8.73008719 L47.8935836,8.82237235 C48.6142867,8.88389578 48.9746383,8.97178641 48.9746383,9.08604422 L48.9746383,9.08604422 L48.9746383,18.4991302 C48.9746383,18.5694427 49.1811813,18.7188567 49.5942672,18.9473723 L49.5942672,18.9473723 L49.5942672,27.5430755 C49.4975875,27.7188567 49.4096969,27.8067473 49.3305953,27.8067473 L49.3305953,27.8067473 L48.5263961,27.8067473 L48.5263961,27.9913177 L49.3305953,27.9913177 C49.5063766,28.0792083 49.5942672,28.1670989 49.5942672,28.2549895 L49.5942672,28.2549895 L49.5942672,29.0591888 C50.7016891,29.1207122 51.5058883,29.1514739 52.0068648,29.1514739 L52.0068648,29.1514739 L63.9248336,29.1514739 Z M77.7674815,29.0064544 C78.8836924,29.0064544 80.1273448,28.8306731 81.4984385,28.4791106 C84.3109385,27.406845 86.3895518,25.7632903 87.7342784,23.5484466 C87.7342784,23.4869231 87.4178721,23.4561614 86.7850596,23.4561614 C86.7850596,23.3594817 86.8421885,23.3023528 86.9564463,23.2847747 L86.9564463,23.2847747 L87.8133799,23.2847747 L88.1693369,23.0211028 L89.8172862,23.0211028 L89.9886729,22.9420013 C91.0873057,20.9908294 91.6366221,19.0528411 91.6366221,17.1280364 C91.6366221,16.9962005 91.4608409,16.9127044 91.1092784,16.8775481 L91.1092784,16.8775481 L91.0301768,16.8775481 L90.8456065,16.9566497 C90.8456065,16.9039153 90.8192393,16.8775481 90.7665049,16.8775481 L90.7665049,16.8775481 L89.8963877,16.8775481 C89.799708,16.8775481 89.7425791,16.8204192 89.725001,16.7061614 C89.725001,15.6075286 89.6107432,15.0582122 89.3822276,15.0582122 L89.3822276,15.0582122 L89.2108409,15.0582122 C89.0174815,15.0582122 88.8724619,15.0845794 88.7757823,15.1373138 C88.6439463,15.0845794 88.1517588,15.0582122 87.2992198,15.0582122 L87.2992198,15.0582122 L87.2992198,14.965927 L89.3822276,14.965927 L89.6327159,14.7945403 C88.9823252,12.3248138 88.0023448,10.3604583 86.6927744,8.90147391 L86.6927744,8.90147391 L86.6927744,8.82237235 C86.8861338,8.82237235 87.0311534,8.79161063 87.127833,8.73008719 C87.127833,8.79161063 87.1542002,8.82237235 87.2069346,8.82237235 L87.2069346,8.82237235 L87.6419932,8.82237235 C87.756251,8.82237235 87.8133799,8.76524344 87.8133799,8.65098563 L87.8133799,8.65098563 L87.8133799,8.55870047 L87.3915049,8.46641532 L86.4291026,8.46641532 C86.0775401,8.23789969 85.7303721,8.12364188 85.3875987,8.12364188 C83.9901377,7.02500907 83.1859385,6.47569266 82.975001,6.47569266 L82.975001,6.47569266 L82.975001,6.30430594 C83.0980479,6.30430594 83.2123057,6.27793875 83.3177744,6.22520438 C81.9027354,5.35508719 80.1712901,4.9200286 78.1234385,4.9200286 C75.1615244,4.9200286 72.9071299,5.38145438 71.3602549,6.30430594 L71.3602549,6.30430594 L70.4110362,6.30430594 C69.2245127,7.02500907 68.415919,7.57432547 67.9852549,7.95225516 C67.9852549,8.06651297 68.0995127,8.12364188 68.3280284,8.12364188 L68.3280284,8.12364188 L68.2489268,8.2950286 L68.3280284,8.46641532 L68.7630869,8.38731375 L68.8553721,8.38731375 C69.0047862,8.38731375 69.1761729,8.44444266 69.3695323,8.55870047 C69.3695323,8.73448172 68.9959971,8.82237235 68.2489268,8.82237235 C67.8270518,8.82237235 67.3612315,9.16954032 66.8514659,9.86387625 C65.5243174,11.8941497 64.7772471,13.9112395 64.6102549,15.9151458 C64.6102549,15.9766692 64.6366221,16.0645598 64.6893565,16.1788177 C64.7508799,16.1788177 64.8387705,16.1524505 64.9530284,16.0997161 C65.0672862,16.1524505 65.1551768,16.1788177 65.2167002,16.1788177 L65.2167002,16.1788177 L65.2167002,16.5215911 C64.7508799,16.5831145 64.5179698,16.6710052 64.5179698,16.785263 C64.5179698,16.8995208 64.5750987,16.9566497 64.6893565,16.9566497 L64.6893565,16.9566497 L66.165919,16.9566497 C66.3856455,17.3609466 66.5306651,17.563095 66.6009776,17.563095 L66.6009776,17.563095 L69.7123057,17.563095 C69.8265635,17.563095 69.8836924,17.6202239 69.8836924,17.7344817 L69.8836924,17.7344817 L69.8836924,17.8267669 L68.5917002,17.8267669 C68.1874034,17.8267669 67.5501963,17.8575286 66.6800791,17.919052 C66.6800791,17.8575286 66.6537119,17.8267669 66.6009776,17.8267669 L66.6009776,17.8267669 L66.5086924,17.9981536 L66.5086924,18.2618255 C66.596583,19.6768645 67.0887705,21.2369231 67.9852549,22.9420013 L67.9852549,22.9420013 L67.5501963,23.0211028 L66.4295909,23.0211028 C66.306544,23.0211028 66.2450205,23.1089934 66.2450205,23.2847747 L66.2450205,23.2847747 L65.3880869,23.2847747 L65.3880869,23.4561614 L66.165919,23.4561614 C66.2977549,23.4561614 66.4120127,23.4869231 66.5086924,23.5484466 C67.1854502,24.5064544 68.0819346,25.4556731 69.1981455,26.3961028 C70.6395518,27.6441497 72.6302744,28.4835052 75.1703135,28.9141692 C75.2318369,28.9141692 75.3197276,28.8834075 75.4339854,28.8218841 C75.6800791,28.9449309 76.1415049,29.0064544 76.8182627,29.0064544 L76.8182627,29.0064544 L77.7674815,29.0064544 Z M77.1610362,23.89122 C76.8094737,23.89122 76.1195323,23.7462005 75.0912119,23.4561614 L75.0912119,23.4561614 L74.049708,23.4561614 L74.049708,23.2847747 L74.5638682,23.2847747 L74.5638682,23.1924895 L74.4847666,23.0211028 L75.6976573,23.0211028 L75.869044,22.9420013 C75.869044,22.8628997 75.5482432,22.6036223 74.9066416,22.1641692 C73.7464854,21.0303802 73.0257823,19.7559661 72.7445323,18.340927 L72.7445323,18.340927 L72.7445323,17.919052 C74.1507823,17.8575286 74.959376,17.8267669 75.1703135,17.8267669 L75.1703135,17.8267669 L75.6053721,17.919052 C75.6053721,17.8575286 75.6361338,17.8267669 75.6976573,17.8267669 C75.7591807,17.8267669 75.8426768,17.8575286 75.9481455,17.919052 C76.0624034,17.919052 76.1195323,17.8575286 76.1195323,17.7344817 L76.1195323,17.7344817 L76.1195323,17.563095 L75.4339854,17.563095 C74.8275401,17.563095 73.9046885,17.5367278 72.6654307,17.4839934 C72.5863291,17.0796966 72.4984385,16.8775481 72.4017588,16.8775481 L72.4017588,16.8775481 L70.8460948,16.8775481 L70.8460948,16.6138763 L71.2679698,16.6138763 C71.3910166,16.6138763 71.4525401,16.5567473 71.4525401,16.4424895 L71.4525401,16.4424895 L71.4525401,16.2711028 L70.9251963,15.9151458 L70.9251963,15.7437591 C70.9251963,15.4361419 71.1273448,14.7725677 71.5316416,13.7530364 C73.0433604,11.2745208 75.0077159,10.035263 77.424708,10.035263 C78.2508799,10.035263 79.318751,10.4395598 80.6283213,11.2481536 C81.8148448,12.0743255 82.6805674,13.2564544 83.2254893,14.7945403 L83.2254893,14.7945403 L83.2254893,14.8868255 L81.9334971,14.8868255 C81.5292002,14.8868255 80.8919932,14.9131927 80.021876,14.965927 L80.021876,14.965927 L80.021876,15.1373138 L82.975001,15.1373138 L83.396876,15.2295989 C83.396876,16.3809661 83.5155284,16.9566497 83.752833,16.9566497 L83.752833,16.9566497 L84.3592784,16.9566497 L84.5306651,16.8775481 C85.1019541,16.9478606 85.3875987,17.0313567 85.3875987,17.1280364 L85.3875987,17.1280364 L85.3875987,17.8267669 C85.3875987,17.9937591 85.2162119,18.6573333 84.8734385,19.8174895 C83.9857432,21.4698333 82.975001,22.5377044 81.8412119,23.0211028 C81.7796885,23.0211028 81.6917979,22.9947356 81.5775401,22.9420013 C81.4808604,22.9947356 81.3666026,23.0211028 81.2347666,23.0211028 L81.2347666,23.0211028 L80.3646494,23.0211028 C79.6175791,23.1968841 79.2132823,23.2847747 79.1517588,23.2847747 L79.1517588,23.2847747 L78.2025401,23.2847747 L78.2025401,23.4561614 L78.6375987,23.4561614 C78.7518565,23.4561614 78.8089854,23.5132903 78.8089854,23.6275481 C78.0443369,23.8033294 77.4950205,23.89122 77.1610362,23.89122 Z M65.9022471,17.8267669 L66.0736338,17.7344817 C66.0736338,17.637802 66.0165049,17.5806731 65.9022471,17.563095 L65.9022471,17.563095 L64.9530284,17.563095 L64.9530284,17.8267669 L65.9022471,17.8267669 Z M75.6976573,19.8174895 C75.8119151,19.8174895 75.869044,19.7603606 75.869044,19.6461028 L75.869044,19.6461028 L75.869044,19.3824309 C75.869044,19.2857513 75.8119151,19.2286223 75.6976573,19.2110442 L75.6976573,19.2110442 L75.6053721,19.2110442 C75.5086924,19.2110442 75.4515635,19.2681731 75.4339854,19.3824309 L75.4339854,19.3824309 L75.4339854,19.6461028 C75.4339854,19.7603606 75.4911143,19.8174895 75.6053721,19.8174895 L75.6053721,19.8174895 L75.6976573,19.8174895 Z M65.8231455,20.7667083 L66.0736338,20.5953216 L65.9945323,20.160263 L65.4671885,20.160263 L65.2958018,20.2525481 C65.3573252,20.5953216 65.4452159,20.7667083 65.5594737,20.7667083 L65.5594737,20.7667083 L65.8231455,20.7667083 Z" transform="translate(46.240313, 17.015976) rotate(1.000000) translate(-46.240313, -17.015976)"/><path id="YOLO" fill="#3F49EA" d="M13.4905725,28.2110272 L13.9388147,28.118742 C13.9388147,28.1802655 13.9695764,28.2110272 14.0310998,28.2110272 C14.2068811,28.2110272 14.2947717,28.1495038 14.2947717,28.0264569 L14.2947717,28.0264569 L13.9388147,27.6704998 L13.9388147,21.1709881 C13.9388147,21.0655194 13.8772913,21.0039959 13.7542444,20.9864178 L13.7542444,20.9864178 L12.3304163,20.9864178 L11.8821741,20.9073163 C11.8821741,20.9600506 11.8558069,20.9864178 11.8030725,20.9864178 C11.6976038,20.9336834 11.5789514,20.9073163 11.4471155,20.9073163 L11.4471155,20.9073163 L11.4471155,20.8150311 L13.3191858,20.8150311 C13.4334436,20.8150311 13.4905725,20.7535077 13.4905725,20.6304608 L13.4905725,20.6304608 L13.4905725,20.0108319 L12.9500452,19.6548748 L12.9500452,17.1631756 L13.0423303,16.9786053 L13.2269006,17.0708905 L13.6751428,17.0708905 C13.9300256,17.0708905 14.1673303,17.009367 14.3870569,16.8863202 C14.3870569,16.7896405 14.3255334,16.7325116 14.2024866,16.7149334 L14.2024866,16.7149334 L13.0423303,16.7149334 C13.0423303,16.6182538 14.5892053,14.2100506 17.6829553,9.49032406 L17.6829553,9.49032406 L18.2102991,9.49032406 L18.7508264,8.96298031 L19.7264123,8.96298031 L19.9109827,8.87069516 C19.9109827,8.76522641 19.8494592,8.70370297 19.7264123,8.68612485 L19.7264123,8.68612485 L18.9222131,8.68612485 C19.4583459,7.67538266 20.4383264,6.1900311 21.8621545,4.23007016 C21.8621545,4.13339047 21.8050256,4.07626156 21.6907678,4.05868344 L21.6907678,4.05868344 L14.8221155,4.05868344 C12.923678,6.97665219 11.9744592,8.46200375 11.9744592,8.51473813 C11.9744592,8.62899594 12.0359827,8.68612485 12.1590295,8.68612485 L12.1590295,8.68612485 L12.9500452,8.68612485 L12.9500452,8.87069516 L12.5149866,8.96298031 L12.0667444,8.87069516 C11.8030725,8.9322186 11.5657678,9.10799985 11.3548303,9.39803891 C10.88901,9.39803891 10.5022913,9.69686703 10.1946741,10.2945233 C10.4056116,10.8306561 10.5813928,11.0987225 10.7220178,11.0987225 C10.7220178,11.1602459 10.5769983,11.4854413 10.2869592,12.0743084 L10.2869592,12.0743084 L10.1023889,12.0743084 L8.58627563,9.49032406 C8.68295531,9.49032406 8.80160766,9.43319516 8.94223266,9.31893735 C8.94223266,9.25741391 8.91586547,9.16512875 8.86313109,9.04208188 L8.86313109,9.04208188 L8.86313109,8.96298031 L9.83871703,8.96298031 L9.83871703,8.68612485 L8.67856078,8.68612485 C8.58188109,8.67733578 8.37533813,8.41366391 8.05893188,7.89510922 L8.05893188,7.89510922 L7.42611938,7.97421078 L7.07016234,7.97421078 C6.89438109,7.88632016 6.80649047,7.79842953 6.80649047,7.71053891 L6.80649047,7.71053891 L6.80649047,7.61825375 C7.33383422,7.55673031 7.65902953,7.49960141 7.78207641,7.44686703 C6.85043578,5.79452328 6.10776,4.66512875 5.55404906,4.05868344 L5.55404906,4.05868344 L-1.39370484,4.05868344 C-1.39370484,4.29598813 -0.68179078,5.39462094 0.742037345,7.35458188 C0.742037345,7.46883969 0.386080313,7.55673031 -0.325833749,7.61825375 C-0.176419687,7.85555844 -0.0577673428,7.97421078 0.0301232822,7.97421078 L0.0301232822,7.97421078 L1.01889281,7.97421078 L1.63852172,8.68612485 L2.61410766,8.68612485 C2.73715453,8.68612485 2.79867797,8.74764828 2.79867797,8.87069516 L2.79867797,8.87069516 L2.35043578,8.96298031 L1.80990844,8.96298031 L1.90219359,9.39803891 C1.77035766,9.39803891 1.65170531,9.42880063 1.54623656,9.49032406 C4.38510375,13.9375897 6.01986938,16.3457928 6.45053344,16.7149334 L6.45053344,16.7149334 L6.89877563,16.7149334 L7.78207641,16.8072186 C7.78207641,16.9038983 7.63705688,16.9917889 7.34701781,17.0708905 C7.34701781,17.009367 7.31625609,16.9786053 7.25473266,16.9786053 L7.25473266,16.9786053 L6.63510375,16.9786053 L6.35824828,17.1631756 L6.45053344,17.3345623 L6.45053344,19.0352459 L6.35824828,19.6548748 C6.78012328,19.813078 6.99106078,19.9317303 6.99106078,20.0108319 L6.99106078,20.0108319 L6.99106078,20.6304608 C6.99106078,20.7535077 6.92953734,20.8150311 6.80649047,20.8150311 L6.80649047,20.8150311 L4.842135,20.8150311 L4.67074828,20.9073163 C4.67074828,21.0215741 4.72787719,21.078703 4.842135,21.078703 L4.842135,21.078703 L4.93442016,21.078703 L5.11899047,20.9864178 L5.11899047,21.078703 C5.18051391,21.078703 5.26840453,21.0479413 5.38266234,20.9864178 L5.38266234,20.9864178 L5.91000609,21.078703 L7.25473266,21.078703 C7.43051391,21.1753827 7.51840453,21.2632733 7.51840453,21.3423748 L7.51840453,21.3423748 L7.51840453,27.6704998 C7.81723266,27.9341717 7.96664672,28.0835858 7.96664672,28.118742 C8.02817016,28.118742 8.05893188,28.0879803 8.05893188,28.0264569 C8.16440063,28.0704022 8.57748656,28.1319256 9.29818969,28.2110272 C9.29818969,28.1495038 9.32895141,28.118742 9.39047484,28.118742 C9.39047484,28.1802655 9.42123656,28.2110272 9.48276,28.2110272 L9.48276,28.2110272 L13.4905725,28.2110272 Z M32.8559387,28.1451092 C33.9721496,28.1451092 35.215802,27.969328 36.5868957,27.6177655 C39.3993957,26.5454998 41.478009,24.9019452 42.8227356,22.6871014 C42.8227356,22.625578 42.5063293,22.5948163 41.8735168,22.5948163 C41.8735168,22.4981366 41.9306457,22.4410077 42.0449035,22.4234295 L42.0449035,22.4234295 L42.9018371,22.4234295 L43.2577941,22.1597577 L44.9057434,22.1597577 L45.0771301,22.0806561 C46.1757629,20.1294842 46.7250793,18.1914959 46.7250793,16.2666913 C46.7250793,16.1348553 46.5492981,16.0513592 46.1977356,16.016203 L46.1977356,16.016203 L46.118634,16.016203 L45.9340637,16.0953045 C45.9340637,16.0425702 45.9076965,16.016203 45.8549621,16.016203 L45.8549621,16.016203 L44.9848449,16.016203 C44.8881652,16.016203 44.8310363,15.9590741 44.8134582,15.8448163 C44.8134582,14.7461834 44.6992004,14.196867 44.4706848,14.196867 L44.4706848,14.196867 L44.2992981,14.196867 C44.1059387,14.196867 43.9609191,14.2232342 43.8642395,14.2759686 C43.7324035,14.2232342 43.240216,14.196867 42.387677,14.196867 L42.387677,14.196867 L42.387677,14.1045819 L44.4706848,14.1045819 L44.7211731,13.9331952 C44.0707824,11.4634686 43.090802,9.49911313 41.7812316,8.04012875 L41.7812316,8.04012875 L41.7812316,7.96102719 C41.974591,7.96102719 42.1196106,7.93026547 42.2162902,7.86874203 C42.2162902,7.93026547 42.2426574,7.96102719 42.2953918,7.96102719 L42.2953918,7.96102719 L42.7304504,7.96102719 C42.8447082,7.96102719 42.9018371,7.90389828 42.9018371,7.78964047 L42.9018371,7.78964047 L42.9018371,7.69735531 L42.4799621,7.60507016 L41.5175598,7.60507016 C41.1659973,7.37655453 40.8188293,7.26229672 40.4760559,7.26229672 C39.0785949,6.16366391 38.2743957,5.6143475 38.0634582,5.6143475 L38.0634582,5.6143475 L38.0634582,5.44296078 C38.1865051,5.44296078 38.3007629,5.4165936 38.4062316,5.36385922 C36.9911926,4.49374203 35.2597473,4.05868344 33.2118957,4.05868344 C30.2499816,4.05868344 27.9955871,4.52010922 26.4487121,5.44296078 L26.4487121,5.44296078 L25.4994934,5.44296078 C24.3129699,6.16366391 23.5043762,6.71298031 23.0737121,7.09091 C23.0737121,7.20516781 23.1879699,7.26229672 23.4164856,7.26229672 L23.4164856,7.26229672 L23.337384,7.43368344 L23.4164856,7.60507016 L23.8515441,7.5259686 L23.9438293,7.5259686 C24.0932434,7.5259686 24.2646301,7.5830975 24.4579895,7.69735531 C24.4579895,7.87313656 24.0844543,7.96102719 23.337384,7.96102719 C22.915509,7.96102719 22.4496887,8.30819516 21.9399231,9.0025311 C20.6127746,11.0328045 19.8657043,13.0498944 19.6987121,15.0538006 C19.6987121,15.1153241 19.7250793,15.2032147 19.7778137,15.3174725 C19.8393371,15.3174725 19.9272277,15.2911053 20.0414856,15.2383709 C20.1557434,15.2911053 20.243634,15.3174725 20.3051574,15.3174725 L20.3051574,15.3174725 L20.3051574,15.6602459 C19.8393371,15.7217694 19.606427,15.80966 19.606427,15.9239178 C19.606427,16.0381756 19.6635559,16.0953045 19.7778137,16.0953045 L19.7778137,16.0953045 L21.2543762,16.0953045 C21.4741027,16.4996014 21.6191223,16.7017498 21.6894348,16.7017498 L21.6894348,16.7017498 L24.8007629,16.7017498 C24.9150207,16.7017498 24.9721496,16.7588788 24.9721496,16.8731366 L24.9721496,16.8731366 L24.9721496,16.9654217 L23.6801574,16.9654217 C23.2758606,16.9654217 22.6386535,16.9961834 21.7685363,17.0577069 C21.7685363,16.9961834 21.7421691,16.9654217 21.6894348,16.9654217 L21.6894348,16.9654217 L21.5971496,17.1368084 L21.5971496,17.4004803 C21.6850402,18.8155194 22.1772277,20.375578 23.0737121,22.0806561 L23.0737121,22.0806561 L22.6386535,22.1597577 L21.5180481,22.1597577 C21.3950012,22.1597577 21.3334777,22.2476483 21.3334777,22.4234295 L21.3334777,22.4234295 L20.4765441,22.4234295 L20.4765441,22.5948163 L21.2543762,22.5948163 C21.3862121,22.5948163 21.5004699,22.625578 21.5971496,22.6871014 C22.2739074,23.6451092 23.1703918,24.594328 24.2866027,25.5347577 C25.728009,26.7828045 27.7187316,27.62216 30.2587707,28.0528241 C30.3202941,28.0528241 30.4081848,28.0220623 30.5224426,27.9605389 C30.7685363,28.0835858 31.2299621,28.1451092 31.9067199,28.1451092 L31.9067199,28.1451092 L32.8559387,28.1451092 Z M32.2494934,23.0298748 C31.8979309,23.0298748 31.2079895,22.8848553 30.1796691,22.5948163 L30.1796691,22.5948163 L29.1381652,22.5948163 L29.1381652,22.4234295 L29.6523254,22.4234295 L29.6523254,22.3311444 L29.5732238,22.1597577 L30.7861145,22.1597577 L30.9575012,22.0806561 C30.9575012,22.0015545 30.6367004,21.7422772 29.9950988,21.3028241 C28.8349426,20.169035 28.1142395,18.8946209 27.8329895,17.4795819 L27.8329895,17.4795819 L27.8329895,17.0577069 C29.2392395,16.9961834 30.0478332,16.9654217 30.2587707,16.9654217 L30.2587707,16.9654217 L30.6938293,17.0577069 C30.6938293,16.9961834 30.724591,16.9654217 30.7861145,16.9654217 C30.8476379,16.9654217 30.931134,16.9961834 31.0366027,17.0577069 C31.1508606,17.0577069 31.2079895,16.9961834 31.2079895,16.8731366 L31.2079895,16.8731366 L31.2079895,16.7017498 L30.3492036,16.7010961 C29.7455911,16.6967379 28.8804859,16.6705886 27.7538879,16.6226483 C27.6747863,16.2183514 27.5868957,16.016203 27.490216,16.016203 L27.490216,16.016203 L25.934552,16.016203 L25.934552,15.7525311 L26.356427,15.7525311 C26.4794738,15.7525311 26.5409973,15.6954022 26.5409973,15.5811444 L26.5409973,15.5811444 L26.5409973,15.4097577 L26.0136535,15.0538006 L26.0136535,14.8824139 C26.0136535,14.5747967 26.215802,13.9112225 26.6200988,12.8916913 C28.1318176,10.4131756 30.0961731,9.17391781 32.5131652,9.17391781 C33.3393371,9.17391781 34.4072082,9.57821469 35.7167785,10.3868084 C36.903302,11.2129803 37.7690246,12.3951092 38.3139465,13.9331952 L38.3139465,13.9331952 L38.3139465,14.0254803 L37.0219543,14.0254803 C36.6176574,14.0254803 35.9804504,14.0518475 35.1103332,14.1045819 L35.1103332,14.1045819 L35.1103332,14.2759686 L38.0634582,14.2759686 L38.4853332,14.3682538 C38.4853332,15.5196209 38.6039856,16.0953045 38.8412902,16.0953045 L38.8412902,16.0953045 L39.4477356,16.0953045 L39.6191223,16.016203 C40.1904113,16.0865155 40.4760559,16.1700116 40.4760559,16.2666913 L40.4760559,16.2666913 L40.4760559,16.9654217 C40.4760559,17.1324139 40.3046691,17.7959881 39.9618957,18.9561444 C39.0742004,20.6084881 38.0634582,21.6763592 36.9296691,22.1597577 C36.8681457,22.1597577 36.7802551,22.1333905 36.6659973,22.0806561 C36.5693176,22.1333905 36.4550598,22.1597577 36.3232238,22.1597577 L36.3232238,22.1597577 L35.4531066,22.1597577 C34.7060363,22.3355389 34.3017395,22.4234295 34.240216,22.4234295 L34.240216,22.4234295 L33.2909973,22.4234295 L33.2909973,22.5948163 L33.7260559,22.5948163 C33.8403137,22.5948163 33.8974426,22.6519452 33.8974426,22.766203 C33.1327941,22.9419842 32.5834777,23.0298748 32.2494934,23.0298748 Z M20.9907043,16.9654217 L21.162091,16.8731366 C21.162091,16.7764569 21.1049621,16.719328 20.9907043,16.7017498 L20.9907043,16.7017498 L20.0414856,16.7017498 L20.0414856,16.9654217 L20.9907043,16.9654217 Z M30.7861145,18.9561444 C30.9003723,18.9561444 30.9575012,18.8990155 30.9575012,18.7847577 L30.9575012,18.7847577 L30.9575012,18.5210858 C30.9575012,18.4244061 30.9003723,18.3672772 30.7861145,18.3496991 L30.7861145,18.3496991 L30.6938293,18.3496991 C30.5971496,18.3496991 30.5400207,18.406828 30.5224426,18.5210858 L30.5224426,18.5210858 L30.5224426,18.7847577 C30.5224426,18.8990155 30.5795715,18.9561444 30.6938293,18.9561444 L30.6938293,18.9561444 L30.7861145,18.9561444 Z M20.9116027,19.9053631 L21.162091,19.7339764 L21.0829895,19.2989178 L20.5556457,19.2989178 L20.384259,19.391203 C20.4457824,19.7339764 20.5336731,19.9053631 20.6479309,19.9053631 L20.6479309,19.9053631 L20.9116027,19.9053631 Z M61.6871252,28.2901288 C61.810172,28.2901288 61.8716955,28.2286053 61.8716955,28.1055584 L61.8716955,28.1055584 L61.8716955,27.3013592 L61.7794103,27.1299725 L61.238883,27.2090741 C60.9224767,27.1563397 60.7423009,27.1299725 60.6983556,27.1299725 L60.6983556,27.1299725 L60.6983556,26.9454022 C60.9005041,26.9454022 61.0499181,26.9146405 61.1465978,26.853117 L61.1465978,26.853117 L61.6871252,26.9454022 C61.810172,26.9454022 61.8716955,26.8882733 61.8716955,26.7740155 L61.8716955,26.7740155 L61.8716955,24.0845623 L61.950797,23.6363202 L61.7794103,23.544035 L55.0557775,23.544035 L54.1592931,23.4517498 C54.1592931,23.5132733 54.1021642,23.544035 53.9879064,23.544035 C53.8824377,23.544035 53.8209142,23.4825116 53.8033361,23.3594647 L53.8033361,23.3594647 L53.8033361,17.993742 C53.8033361,17.8970623 53.5967931,17.8047772 53.1837072,17.7168866 L53.1837072,17.7168866 L53.2628088,17.5454998 L53.2628088,8.22469906 C53.2628088,8.12801938 53.2056798,8.07089047 53.091422,8.05331235 L53.091422,8.05331235 L52.1026525,8.05331235 L52.1026525,7.86874203 C52.1026525,7.77206235 52.1641759,7.71493344 52.2872228,7.69735531 L52.2872228,7.69735531 L53.091422,7.69735531 L53.8033361,7.15682797 L53.8033361,5.27157406 C53.8033361,5.15731625 53.653922,5.10018735 53.3550939,5.10018735 C53.2935705,4.37948422 53.2056798,4.01913266 53.091422,4.01913266 L53.091422,4.01913266 L46.9083166,4.01913266 C46.8116369,4.01913266 46.754508,4.0806561 46.7369298,4.20370297 L46.7369298,4.20370297 L46.7369298,5.00790219 C47.1500158,5.00790219 47.3565588,5.18368344 47.3565588,5.53524594 L47.3565588,5.53524594 L47.3565588,7.15682797 C47.3565588,7.27108578 47.2686681,7.32821469 47.0928869,7.32821469 C46.68859,7.67098813 46.2095861,7.85116391 45.6558752,7.86874203 L45.6558752,7.86874203 L45.6558752,7.96102719 C46.3765783,8.02255063 46.7369298,8.11044125 46.7369298,8.22469906 L46.7369298,8.22469906 L46.7369298,17.637785 C46.7369298,17.7080975 46.9434728,17.8575116 47.3565588,18.0860272 L47.3565588,18.0860272 L47.3565588,26.6817303 C47.2598791,26.8575116 47.1719884,26.9454022 47.0928869,26.9454022 L47.0928869,26.9454022 L46.2886877,26.9454022 L46.2886877,27.1299725 L47.0928869,27.1299725 C47.2686681,27.2178631 47.3565588,27.3057538 47.3565588,27.3936444 L47.3565588,27.3936444 L47.3565588,28.1978436 C48.4639806,28.259367 49.2681798,28.2901288 49.7691564,28.2901288 L49.7691564,28.2901288 L61.6871252,28.2901288 Z M75.529773,28.1451092 C76.645984,28.1451092 77.8896363,27.969328 79.2607301,27.6177655 C82.0732301,26.5454998 84.1518434,24.9019452 85.4965699,22.6871014 C85.4965699,22.625578 85.1801637,22.5948163 84.5473512,22.5948163 C84.5473512,22.4981366 84.6044801,22.4410077 84.7187379,22.4234295 L84.7187379,22.4234295 L85.5756715,22.4234295 L85.9316285,22.1597577 L87.5795777,22.1597577 L87.7509644,22.0806561 C88.8495973,20.1294842 89.3989137,18.1914959 89.3989137,16.2666913 C89.3989137,16.1348553 89.2231324,16.0513592 88.8715699,16.016203 L88.8715699,16.016203 L88.7924684,16.016203 L88.607898,16.0953045 C88.607898,16.0425702 88.5815309,16.016203 88.5287965,16.016203 L88.5287965,16.016203 L87.6586793,16.016203 C87.5619996,16.016203 87.5048707,15.9590741 87.4872926,15.8448163 C87.4872926,14.7461834 87.3730348,14.196867 87.1445191,14.196867 L87.1445191,14.196867 L86.9731324,14.196867 C86.779773,14.196867 86.6347535,14.2232342 86.5380738,14.2759686 C86.4062379,14.2232342 85.9140504,14.196867 85.0615113,14.196867 L85.0615113,14.196867 L85.0615113,14.1045819 L87.1445191,14.1045819 L87.3950074,13.9331952 C86.7446168,11.4634686 85.7646363,9.49911313 84.455066,8.04012875 L84.455066,8.04012875 L84.455066,7.96102719 C84.6484254,7.96102719 84.7934449,7.93026547 84.8901246,7.86874203 C84.8901246,7.93026547 84.9164918,7.96102719 84.9692262,7.96102719 L84.9692262,7.96102719 L85.4042848,7.96102719 C85.5185426,7.96102719 85.5756715,7.90389828 85.5756715,7.78964047 L85.5756715,7.78964047 L85.5756715,7.69735531 L85.1537965,7.60507016 L84.1913941,7.60507016 C83.8398316,7.37655453 83.4926637,7.26229672 83.1498902,7.26229672 C81.7524293,6.16366391 80.9482301,5.6143475 80.7372926,5.6143475 L80.7372926,5.6143475 L80.7372926,5.44296078 C80.8603394,5.44296078 80.9745973,5.4165936 81.080066,5.36385922 C79.6650269,4.49374203 77.9335816,4.05868344 75.8857301,4.05868344 C72.923816,4.05868344 70.6694215,4.52010922 69.1225465,5.44296078 L69.1225465,5.44296078 L68.1733277,5.44296078 C66.9868043,6.16366391 66.1782105,6.71298031 65.7475465,7.09091 C65.7475465,7.20516781 65.8618043,7.26229672 66.0903199,7.26229672 L66.0903199,7.26229672 L66.0112184,7.43368344 L66.0903199,7.60507016 L66.5253785,7.5259686 L66.6176637,7.5259686 C66.7670777,7.5259686 66.9384644,7.5830975 67.1318238,7.69735531 C67.1318238,7.87313656 66.7582887,7.96102719 66.0112184,7.96102719 C65.5893434,7.96102719 65.123523,8.30819516 64.6137574,9.0025311 C63.286609,11.0328045 62.5395387,13.0498944 62.3725465,15.0538006 C62.3725465,15.1153241 62.3989137,15.2032147 62.451648,15.3174725 C62.5131715,15.3174725 62.6010621,15.2911053 62.7153199,15.2383709 C62.8295777,15.2911053 62.9174684,15.3174725 62.9789918,15.3174725 L62.9789918,15.3174725 L62.9789918,15.6602459 C62.5131715,15.7217694 62.2802613,15.80966 62.2802613,15.9239178 C62.2802613,16.0381756 62.3373902,16.0953045 62.451648,16.0953045 L62.451648,16.0953045 L63.9282105,16.0953045 C64.1479371,16.4996014 64.2929566,16.7017498 64.3632691,16.7017498 L64.3632691,16.7017498 L67.4745973,16.7017498 C67.5888551,16.7017498 67.645984,16.7588788 67.645984,16.8731366 L67.645984,16.8731366 L67.645984,16.9654217 L66.3539918,16.9654217 C65.9496949,16.9654217 65.3124879,16.9961834 64.4423707,17.0577069 C64.4423707,16.9961834 64.4160035,16.9654217 64.3632691,16.9654217 L64.3632691,16.9654217 L64.270984,17.1368084 L64.270984,17.4004803 C64.3588746,18.8155194 64.8510621,20.375578 65.7475465,22.0806561 L65.7475465,22.0806561 L65.3124879,22.1597577 L64.1918824,22.1597577 C64.0688355,22.1597577 64.0073121,22.2476483 64.0073121,22.4234295 L64.0073121,22.4234295 L63.1503785,22.4234295 L63.1503785,22.5948163 L63.9282105,22.5948163 C64.0600465,22.5948163 64.1743043,22.625578 64.270984,22.6871014 C64.9477418,23.6451092 65.8442262,24.594328 66.9604371,25.5347577 C68.4018434,26.7828045 70.392566,27.62216 72.9326051,28.0528241 C72.9941285,28.0528241 73.0820191,28.0220623 73.1962769,27.9605389 C73.4423707,28.0835858 73.9037965,28.1451092 74.5805543,28.1451092 L74.5805543,28.1451092 L75.529773,28.1451092 Z M74.9233277,23.0298748 C74.5717652,23.0298748 73.8818238,22.8848553 72.8535035,22.5948163 L72.8535035,22.5948163 L71.8119996,22.5948163 L71.8119996,22.4234295 L72.3261598,22.4234295 L72.3261598,22.3311444 L72.2470582,22.1597577 L73.4599488,22.1597577 L73.6313355,22.0806561 C73.6313355,22.0015545 73.3105348,21.7422772 72.6689332,21.3028241 C71.5087769,20.169035 70.7880738,18.8946209 70.5068238,17.4795819 L70.5068238,17.4795819 L70.5068238,17.0577069 C71.9130738,16.9961834 72.7216676,16.9654217 72.9326051,16.9654217 L72.9326051,16.9654217 L73.3676637,17.0577069 C73.3676637,16.9961834 73.3984254,16.9654217 73.4599488,16.9654217 C73.5214723,16.9654217 73.6049684,16.9961834 73.7104371,17.0577069 C73.8246949,17.0577069 73.8818238,16.9961834 73.8818238,16.8731366 L73.8818238,16.8731366 L73.8818238,16.7017498 L73.023038,16.7010961 C72.4194255,16.6967379 71.5543203,16.6705886 70.4277223,16.6226483 C70.3486207,16.2183514 70.2607301,16.016203 70.1640504,16.016203 L70.1640504,16.016203 L68.6083863,16.016203 L68.6083863,15.7525311 L69.0302613,15.7525311 C69.1533082,15.7525311 69.2148316,15.6954022 69.2148316,15.5811444 L69.2148316,15.5811444 L69.2148316,15.4097577 L68.6874879,15.0538006 L68.6874879,14.8824139 C68.6874879,14.5747967 68.8896363,13.9112225 69.2939332,12.8916913 C70.8056519,10.4131756 72.7700074,9.17391781 75.1869996,9.17391781 C76.0131715,9.17391781 77.0810426,9.57821469 78.3906129,10.3868084 C79.5771363,11.2129803 80.442859,12.3951092 80.9877809,13.9331952 L80.9877809,13.9331952 L80.9877809,14.0254803 L79.6957887,14.0254803 C79.2914918,14.0254803 78.6542848,14.0518475 77.7841676,14.1045819 L77.7841676,14.1045819 L77.7841676,14.2759686 L80.7372926,14.2759686 L81.1591676,14.3682538 C81.1591676,15.5196209 81.2778199,16.0953045 81.5151246,16.0953045 L81.5151246,16.0953045 L82.1215699,16.0953045 L82.2929566,16.016203 C82.8642457,16.0865155 83.1498902,16.1700116 83.1498902,16.2666913 L83.1498902,16.2666913 L83.1498902,16.9654217 C83.1498902,17.1324139 82.9785035,17.7959881 82.6357301,18.9561444 C81.7480348,20.6084881 80.7372926,21.6763592 79.6035035,22.1597577 C79.5419801,22.1597577 79.4540894,22.1333905 79.3398316,22.0806561 C79.2431519,22.1333905 79.1288941,22.1597577 78.9970582,22.1597577 L78.9970582,22.1597577 L78.126941,22.1597577 C77.3798707,22.3355389 76.9755738,22.4234295 76.9140504,22.4234295 L76.9140504,22.4234295 L75.9648316,22.4234295 L75.9648316,22.5948163 L76.3998902,22.5948163 C76.514148,22.5948163 76.5712769,22.6519452 76.5712769,22.766203 C75.8066285,22.9419842 75.2573121,23.0298748 74.9233277,23.0298748 Z M63.6645387,16.9654217 L63.8359254,16.8731366 C63.8359254,16.7764569 63.7787965,16.719328 63.6645387,16.7017498 L63.6645387,16.7017498 L62.7153199,16.7017498 L62.7153199,16.9654217 L63.6645387,16.9654217 Z M73.4599488,18.9561444 C73.5742066,18.9561444 73.6313355,18.8990155 73.6313355,18.7847577 L73.6313355,18.7847577 L73.6313355,18.5210858 C73.6313355,18.4244061 73.5742066,18.3672772 73.4599488,18.3496991 L73.4599488,18.3496991 L73.3676637,18.3496991 C73.270984,18.3496991 73.2138551,18.406828 73.1962769,18.5210858 L73.1962769,18.5210858 L73.1962769,18.7847577 C73.1962769,18.8990155 73.2534059,18.9561444 73.3676637,18.9561444 L73.3676637,18.9561444 L73.4599488,18.9561444 Z M63.5854371,19.9053631 L63.8359254,19.7339764 L63.7568238,19.2989178 L63.2294801,19.2989178 L63.0580934,19.391203 C63.1196168,19.7339764 63.2075074,19.9053631 63.3217652,19.9053631 L63.3217652,19.9053631 L63.5854371,19.9053631 Z"/></g></g></svg>