<?xml version="1.0" standalone="no"?>
<!DOCTYPE svg PUBLIC "-//W3C//DTD SVG 20010904//EN"
 "http://www.w3.org/TR/2001/REC-SVG-20010904/DTD/svg10.dtd">
<svg version="1.0" xmlns="http://www.w3.org/2000/svg"
 width="700.000000pt" height="700.000000pt" viewBox="0 0 700.000000 700.000000"
 preserveAspectRatio="xMidYMid meet">
<metadata>
Created by potrace 1.11, written by Peter Selinger 2001-2013
</metadata>
<g transform="translate(0.000000,700.000000) scale(0.100000,-0.100000)"
fill="#000000" stroke="none">
<path d="M4617 6694 c-1 -1 -56 -4 -122 -8 -66 -4 -136 -9 -155 -12 -40 -6
-147 -25 -211 -39 -67 -13 -172 -51 -256 -91 -75 -36 -103 -44 -149 -44 -51 0
-63 -5 -142 -56 -123 -80 -222 -156 -222 -171 0 -7 9 -13 21 -13 11 0 18 -4
15 -9 -14 -22 5 -39 37 -32 36 8 97 -4 97 -20 0 -14 -46 -29 -93 -29 -87 0
-124 -21 -200 -110 -31 -36 -45 -45 -73 -46 -19 -1 -34 0 -34 1 0 17 172 284
287 446 45 64 85 123 89 133 7 19 14 18 -188 18 -141 1 -147 1 -137 20 5 10 7
23 4 28 -4 6 -122 7 -313 4 -169 -3 -371 -7 -449 -8 -79 -1 -144 -4 -147 -7
-4 -5 -235 -376 -304 -489 -29 -47 -52 -91 -52 -97 0 -8 23 -13 65 -15 50 -2
63 -6 56 -16 -8 -13 -192 -25 -236 -15 -11 2 -31 20 -45 40 -34 50 -48 63 -63
58 -7 -3 -33 -7 -59 -9 -37 -2 -51 1 -64 15 -17 19 -14 31 9 35 68 11 91 15
95 19 11 11 -225 381 -268 420 -25 23 -143 28 -625 27 -515 0 -605 -2 -605
-16 0 -15 127 -206 214 -322 36 -47 63 -90 60 -95 -2 -5 -32 -14 -64 -21 -33
-6 -60 -15 -60 -19 0 -21 39 -34 104 -35 70 -2 70 -2 107 -45 l37 -44 73 0
c86 0 108 -20 32 -30 -26 -3 -55 -7 -63 -8 -10 -2 -14 -11 -12 -28 2 -20 -2
-28 -18 -32 -20 -5 -5 -31 162 -279 191 -283 385 -558 435 -617 29 -34 32 -35
113 -38 46 -2 86 -6 89 -8 14 -15 -25 -28 -79 -26 -75 2 -103 -10 -91 -42 4
-12 7 -86 6 -164 l-2 -141 39 -18 c37 -17 38 -18 38 -71 0 -29 -3 -54 -7 -54
-20 -4 -106 -7 -183 -8 -89 -1 -128 -13 -100 -30 8 -5 18 -7 23 -4 15 9 240 3
252 -7 6 -5 25 -8 43 -8 18 1 34 -1 37 -4 3 -2 8 -148 11 -324 10 -555 7 -501
37 -532 17 -17 39 -27 60 -28 104 -5 252 -19 307 -30 51 -11 725 -11 738 -1
10 8 8 16 -11 36 l-24 26 0 423 c0 243 -4 427 -9 432 -5 5 -69 10 -141 11 -73
2 -133 6 -133 11 0 7 27 9 155 10 28 0 55 4 61 9 6 5 10 27 9 50 -2 32 -9 46
-31 65 -16 13 -31 23 -34 24 -9 0 -6 324 3 338 6 8 13 10 20 4 15 -11 94 -6
132 8 48 18 15 33 -69 31 -69 -2 -75 0 -69 16 11 30 145 240 440 691 148 226
153 232 186 232 24 0 43 9 70 35 28 26 44 34 70 33 l33 -1 -65 -131 c-99 -196
-169 -434 -173 -586 -1 -44 3 -50 36 -50 22 0 36 -6 40 -16 7 -18 0 -34 -15
-34 -5 0 -26 -7 -46 -15 -28 -12 -33 -18 -24 -28 8 -10 36 -13 109 -10 l99 4
27 -41 27 -41 125 3 c101 2 127 0 134 -12 5 -8 8 -15 7 -17 -3 -3 -226 -16
-249 -15 -10 0 -18 -7 -19 -16 -7 -118 50 -325 146 -528 l54 -114 -27 -1 c-15
-1 -62 -2 -104 -4 -79 -3 -103 -10 -93 -26 6 -9 -8 -11 -82 -11 -18 0 -33 -5
-33 -9 0 -11 0 -11 79 -13 49 -2 67 -6 77 -21 136 -186 388 -406 569 -498 104
-52 290 -118 380 -134 16 -3 65 -16 110 -29 251 -75 343 -88 635 -88 294 0
472 35 670 130 157 75 317 184 427 290 93 90 226 258 220 278 -2 6 -30 13 -63
16 -72 6 -59 19 22 21 40 1 68 8 86 21 22 15 43 19 100 18 40 -1 92 -1 114 -1
l41 1 51 103 c66 136 120 289 138 397 3 14 7 32 10 40 3 8 8 65 11 127 7 131
17 122 -134 126 -50 1 -95 6 -99 10 -4 4 -9 38 -10 75 -2 38 -9 86 -16 108
l-13 39 -128 1 c-70 0 -130 4 -134 7 -3 4 52 7 124 7 171 0 167 -5 118 148
-40 127 -47 144 -107 272 -36 79 -107 205 -135 240 -6 8 -32 41 -58 73 -26 32
-44 61 -42 63 3 3 35 6 73 7 42 1 69 6 71 14 6 16 -36 26 -117 28 -36 1 -81 9
-101 18 -20 9 -48 18 -62 21 -40 7 -50 15 -36 32 13 15 6 20 -45 28 -26 5 -99
49 -132 81 -6 5 -38 26 -72 45 -34 19 -62 39 -62 43 0 4 10 11 23 16 19 7 10
14 -73 54 -52 25 -142 58 -200 72 -58 14 -154 41 -215 60 -60 19 -123 37 -140
40 -16 3 -41 7 -55 10 -62 12 -323 27 -333 19z m-2757 -718 c0 -2 -7 -9 -15
-16 -12 -10 -15 -10 -15 4 0 9 7 16 15 16 8 0 15 -2 15 -4z m3059 -51 c172
-87 304 -230 396 -428 18 -39 32 -74 30 -77 -2 -3 -61 -7 -132 -9 -70 -2 -146
-5 -168 -6 -22 -2 -57 -3 -78 -4 -26 -1 -37 -5 -34 -13 3 -10 49 -12 200 -10
108 2 206 1 217 -3 19 -6 30 -54 13 -56 -5 0 -30 -2 -58 -4 -27 -2 -56 -3 -62
-4 -7 -1 -13 -5 -13 -11 0 -6 30 -10 70 -10 39 0 70 -3 71 -7 4 -35 11 -73 20
-101 l11 -32 91 2 c134 3 137 1 137 -80 0 -97 -51 -279 -102 -367 -50 -85
-110 -165 -169 -224 -63 -63 -154 -120 -193 -120 -93 0 -201 -11 -252 -26 -31
-9 -88 -17 -125 -18 -40 -1 -71 -7 -73 -13 -3 -7 9 -11 32 -11 19 1 37 -4 39
-10 4 -10 -13 -15 -127 -38 -51 -11 -106 -12 -128 -4 -42 16 -12 29 63 28 40
-1 78 2 85 6 7 4 -13 26 -56 59 -114 87 -199 190 -263 321 -41 82 -78 201 -77
245 1 24 4 25 76 30 41 3 139 6 218 5 129 0 142 2 142 18 0 9 -3 17 -7 18 -8
1 -160 5 -345 9 -73 2 -98 6 -98 15 0 18 18 23 62 15 21 -4 38 -4 38 1 0 5 14
6 30 3 25 -6 30 -3 30 14 0 19 -8 21 -102 26 -57 3 -145 6 -195 7 -82 2 -93 4
-93 20 0 13 9 19 37 21 49 4 53 31 7 61 -44 29 -44 56 2 194 43 129 103 222
219 339 123 124 235 190 384 228 125 31 172 31 230 1z"/>
<path d="M4355 4828 c-15 -44 -8 -68 19 -68 27 0 37 24 25 58 -9 24 -37 30
-44 10z"/>
<path d="M4636 4745 c-16 -43 3 -72 40 -58 24 9 15 67 -12 71 -13 2 -24 -4
-28 -13z"/>
<path d="M2990 5020 c0 -5 0 -13 0 -17 0 -12 113 -11 128 0 11 8 11 12 0 18
-19 12 -128 11 -128 -1z"/>
<path d="M3043 4684 c-15 -6 3 -63 20 -66 35 -4 43 -3 55 5 6 5 12 22 12 38 0
27 -3 29 -37 28 -21 0 -43 -3 -50 -5z"/>
<path d="M4348 3475 c-2 -2 -42 -6 -90 -9 -199 -14 -406 -65 -547 -133 -76
-36 -109 -47 -160 -50 -51 -3 -74 -10 -120 -38 -90 -56 -244 -170 -249 -184
-2 -7 5 -15 17 -18 13 -3 20 -12 19 -22 -3 -13 5 -15 41 -13 25 1 58 -3 74 -9
43 -18 16 -37 -63 -44 -36 -4 -79 -11 -95 -16 -149 -46 -399 -576 -408 -866
-2 -77 -2 -78 23 -79 47 -1 51 -4 48 -26 -2 -15 -14 -24 -43 -32 -24 -7 -41
-18 -43 -29 -3 -15 8 -17 108 -17 l110 0 7 -30 c3 -17 13 -34 22 -39 9 -4 57
-7 108 -6 74 2 93 -1 98 -13 3 -8 4 -17 2 -19 -2 -2 -46 -6 -98 -8 l-94 -4 1
-48 c1 -125 59 -330 137 -488 63 -127 65 -123 -55 -125 -88 -2 -108 -7 -108
-26 0 -11 -15 -14 -61 -14 -37 0 -58 -4 -54 -10 3 -5 35 -10 70 -10 68 0 71
-1 119 -66 53 -70 259 -268 351 -337 50 -37 135 -90 190 -117 93 -46 141 -66
368 -156 124 -49 308 -95 400 -99 43 -3 82 -7 87 -10 11 -7 343 -8 380 -1 14
2 50 7 80 11 66 8 135 20 170 30 3 1 21 5 40 9 71 15 202 72 340 149 52 29
155 99 158 109 2 4 8 8 13 8 25 0 201 177 274 274 66 89 80 116 63 117 -7 1
-31 3 -53 4 -22 2 -44 4 -48 4 -5 1 -5 5 -2 11 3 5 33 10 66 10 39 0 69 6 85
17 19 12 51 16 135 17 98 1 112 3 126 21 47 63 161 351 177 446 3 19 8 45 11
59 16 78 26 232 15 249 -8 13 -50 18 -166 20 l-60 1 1 48 c1 26 -2 52 -6 57
-4 6 -13 33 -19 60 -6 27 -15 54 -20 61 -7 7 -42 10 -105 8 -52 -2 -97 1 -99
5 -3 5 38 9 91 10 130 3 135 6 116 73 -8 29 -18 62 -23 73 -5 11 -14 38 -20
60 -7 22 -18 54 -26 72 -8 17 -14 33 -14 36 0 3 -16 41 -36 84 -49 106 -133
245 -194 321 -27 34 -50 66 -50 70 0 4 30 8 67 7 55 0 68 3 71 16 4 21 -25 29
-109 29 -43 0 -78 6 -105 19 -21 10 -52 20 -69 22 -31 3 -65 25 -65 42 0 6 5
5 13 -1 19 -16 81 -9 85 10 4 19 -26 28 -99 28 -45 0 -64 6 -95 27 -115 80
-167 113 -175 113 -5 0 -9 5 -9 10 0 6 6 10 14 10 8 0 18 4 21 10 6 10 -129
77 -200 100 -22 7 -65 25 -95 40 -77 39 -217 87 -289 100 -34 5 -73 13 -88 16
-29 6 -379 14 -385 9z m414 -778 c89 -38 216 -151 289 -259 46 -66 124 -226
115 -235 -3 -3 -72 -7 -153 -9 -188 -5 -243 -10 -256 -23 -9 -9 47 -11 205 -9
119 2 219 0 222 -3 8 -8 15 -69 7 -69 -3 -1 -49 -3 -101 -7 -52 -3 -97 -7
-100 -10 -13 -12 30 -19 114 -18 l94 1 6 -44 c10 -71 20 -82 76 -82 27 0 51 4
54 9 7 10 97 -10 97 -22 0 -3 6 -26 13 -50 15 -50 14 -56 -20 -191 -49 -193
-184 -388 -342 -493 -56 -38 -61 -39 -156 -41 -54 -2 -135 -12 -179 -22 -45
-11 -110 -20 -144 -20 -47 0 -63 -4 -63 -14 0 -9 10 -12 35 -9 49 5 47 -22 -2
-32 -21 -5 -45 -10 -53 -12 -28 -8 -201 -13 -196 -5 2 4 29 6 60 6 87 -2 85 9
-11 79 -152 111 -293 340 -322 525 -5 35 -4 52 3 55 6 2 54 5 106 7 52 1 120
4 150 5 30 1 67 -2 82 -6 15 -4 30 -4 33 0 2 5 15 6 29 4 25 -5 44 13 30 27
-5 5 -105 11 -223 14 -117 4 -217 9 -223 12 -5 3 -8 13 -6 22 3 15 19 17 112
17 96 0 109 2 112 18 1 9 -1 17 -4 18 -4 0 -103 2 -220 3 -145 2 -216 6 -224
14 -7 7 -8 13 -2 13 20 4 40 6 57 8 30 2 20 39 -18 63 -35 22 -36 25 -30 68 4
24 22 87 41 140 103 289 394 532 679 567 22 3 41 6 42 7 10 9 156 -5 185 -17z"/>
<path d="M4177 1614 c-13 -13 -7 -62 8 -68 29 -11 46 5 42 38 -2 22 -9 32 -23
34 -11 2 -23 0 -27 -4z"/>
<path d="M4402 1514 c-16 -28 -2 -64 24 -64 23 0 30 13 24 50 -4 29 -34 38
-48 14z"/>
<path d="M923 3369 c-6 -6 -64 -11 -140 -13 -71 -1 -134 -6 -141 -10 -8 -5
-12 -27 -11 -62 2 -52 4 -56 31 -61 15 -3 33 -12 39 -19 13 -16 23 -243 11
-259 -24 -32 -139 -86 -194 -90 -17 -1 -19 -15 -2 -16 10 0 28 -2 39 -4 89
-16 85 -14 86 -48 0 -18 2 -108 4 -202 2 -93 6 -352 9 -575 4 -223 9 -412 11
-421 3 -8 22 -25 42 -36 l37 -21 2 -109 c1 -59 5 -301 9 -538 8 -480 9 -475
-4 -488 -6 -6 -34 -12 -63 -14 -29 -2 -57 -8 -63 -14 -10 -10 -2 -12 66 -9 57
2 73 -16 75 -81 0 -27 3 -52 7 -55 8 -8 399 -8 942 1 264 4 633 8 820 9 l340
1 3 49 c6 86 -1 97 -56 95 -74 -3 -92 0 -92 15 0 18 43 26 102 19 l47 -6 3
214 c2 118 0 218 -4 223 -3 5 -239 9 -522 9 -284 0 -517 2 -518 6 0 3 -2 164
-3 356 -1 193 -4 356 -8 362 -4 6 -20 14 -35 18 l-28 6 1 616 c0 488 -3 619
-13 629 -8 8 -33 12 -68 11 -38 -2 -58 1 -67 11 -18 23 14 39 72 36 45 -2 56
1 98 35 l48 38 -1 122 c0 67 -5 126 -10 130 -5 5 -18 11 -29 13 -14 2 -21 12
-23 33 -1 17 -7 47 -12 68 l-11 37 -407 0 c-278 0 -411 -3 -419 -11z"/>
<path d="M2810 1795 c0 -17 6 -18 74 -16 53 2 66 6 66 22 0 5 -31 9 -70 9 -56
0 -70 -3 -70 -15z"/>
<path d="M2868 1469 c-15 -10 -2 -56 20 -68 24 -13 67 8 66 32 -1 9 -2 23 -3
30 -1 13 -63 18 -83 6z"/>
</g>
</svg>
