<svg xmlns="http://www.w3.org/2000/svg" xmlns:xlink="http://www.w3.org/1999/xlink" width="54" height="54" version="1.1" viewBox="0 0 54 54"><title>Yolo</title><g id="Yolo" fill="none" fill-rule="evenodd" stroke="none" stroke-width="1"><g id="Group" fill-rule="nonzero" transform="translate(27.196546, 27.949879) rotate(-1.000000) translate(-27.196546, -27.949879) translate(1.196546, 2.449879)"><path id="YOLO" fill="#212CD6" d="M17.5131712,24.6980862 L17.9614134,24.605801 C17.9614134,24.6673245 17.9921751,24.6980862 18.0536985,24.6980862 C18.2294798,24.6980862 18.3173704,24.6365628 18.3173704,24.5135159 L18.3173704,24.5135159 L17.9614134,24.1575589 L17.9614134,17.6580471 C17.9614134,17.5525784 17.8998899,17.491055 17.7768431,17.4734768 L17.7768431,17.4734768 L16.3530149,17.4734768 L15.9047728,17.3943753 C15.9047728,17.4471096 15.8784056,17.4734768 15.8256712,17.4734768 C15.7202024,17.4207425 15.6015501,17.3943753 15.4697142,17.3943753 L15.4697142,17.3943753 L15.4697142,17.3020901 L17.3417845,17.3020901 C17.4560423,17.3020901 17.5131712,17.2405667 17.5131712,17.1175198 L17.5131712,17.1175198 L17.5131712,16.4978909 L16.9726438,16.1419339 L16.9726438,13.6502346 L17.064929,13.4656643 L17.2494993,13.5579495 L17.6977415,13.5579495 C17.9526243,13.5579495 18.189929,13.496426 18.4096556,13.3733792 C18.4096556,13.2766995 18.3481321,13.2195706 18.2250853,13.2019925 L18.2250853,13.2019925 L17.064929,13.2019925 C17.064929,13.1053128 18.611804,10.6971096 21.705554,5.97738308 L21.705554,5.97738308 L22.2328978,5.97738308 L22.7734251,5.45003933 L23.749011,5.45003933 L23.9335813,5.35775417 C23.9335813,5.25228542 23.8720579,5.19076198 23.749011,5.17318386 L23.749011,5.17318386 L22.9448118,5.17318386 C23.4809446,4.16244167 24.4609251,2.67709011 25.8847532,0.717129171 C25.8847532,0.620449483 25.8276243,0.563320577 25.7133665,0.545742452 L25.7133665,0.545742452 L18.8447142,0.545742452 C16.9462767,3.4637112 15.9970579,4.94906276 15.9970579,5.00179714 C15.9970579,5.11605495 16.0585813,5.17318386 16.1816282,5.17318386 L16.1816282,5.17318386 L16.9726438,5.17318386 L16.9726438,5.35775417 L16.5375853,5.45003933 L16.0893431,5.35775417 C15.8256712,5.41927761 15.5883665,5.59505886 15.377429,5.88509792 C14.9116087,5.88509792 14.5248899,6.18392605 14.2172728,6.7815823 C14.4282103,7.31771511 14.6039915,7.58578151 14.7446165,7.58578151 C14.7446165,7.64730495 14.599597,7.97250026 14.3095579,8.56136745 L14.3095579,8.56136745 L14.1249876,8.56136745 L12.6088743,5.97738308 C12.705554,5.97738308 12.8242063,5.92025417 12.9648313,5.80599636 C12.9648313,5.74447292 12.9384642,5.65218776 12.8857298,5.52914089 L12.8857298,5.52914089 L12.8857298,5.45003933 L13.8613157,5.45003933 L13.8613157,5.17318386 L12.7011595,5.17318386 C12.6044798,5.1643948 12.3979368,4.90072292 12.0815306,4.38216823 L12.0815306,4.38216823 L11.4487181,4.4612698 L11.092761,4.4612698 C10.9169798,4.37337917 10.8290892,4.28548855 10.8290892,4.19759792 L10.8290892,4.19759792 L10.8290892,4.10531276 C11.3564329,4.04378933 11.6816282,3.98666042 11.8046751,3.93392605 C10.8730345,2.2815823 10.1303587,1.15218776 9.57664775,0.545742452 L9.57664775,0.545742452 L2.62889384,0.545742452 C2.62889384,0.783047139 3.34080791,1.88167995 4.76463603,3.84164089 C4.76463603,3.9558987 4.408679,4.04378933 3.69676494,4.10531276 C3.846179,4.34261745 3.96483134,4.4612698 4.05272197,4.4612698 L4.05272197,4.4612698 L5.0414915,4.4612698 L5.66112041,5.17318386 L6.63670634,5.17318386 C6.75975322,5.17318386 6.82127666,5.2347073 6.82127666,5.35775417 L6.82127666,5.35775417 L6.37303447,5.45003933 L5.83250713,5.45003933 L5.92479228,5.88509792 C5.79295634,5.88509792 5.674304,5.91585964 5.56883525,5.97738308 C8.40770244,10.4246487 10.0424681,12.8328518 10.4731321,13.2019925 L10.4731321,13.2019925 L10.9213743,13.2019925 L11.8046751,13.2942776 C11.8046751,13.3909573 11.6596556,13.4788479 11.3696165,13.5579495 C11.3696165,13.496426 11.3388548,13.4656643 11.2773313,13.4656643 L11.2773313,13.4656643 L10.6577024,13.4656643 L10.380847,13.6502346 L10.4731321,13.8216214 L10.4731321,15.522305 L10.380847,16.1419339 C10.802722,16.300137 11.0136595,16.4187893 11.0136595,16.4978909 L11.0136595,16.4978909 L11.0136595,17.1175198 C11.0136595,17.2405667 10.952136,17.3020901 10.8290892,17.3020901 L10.8290892,17.3020901 L8.86473369,17.3020901 L8.69334697,17.3943753 C8.69334697,17.5086331 8.75047588,17.565762 8.86473369,17.565762 L8.86473369,17.565762 L8.95701884,17.565762 L9.14158916,17.4734768 L9.14158916,17.565762 C9.20311259,17.565762 9.29100322,17.5350003 9.40526103,17.4734768 L9.40526103,17.4734768 L9.93260478,17.565762 L11.2773313,17.565762 C11.4531126,17.6624417 11.5410032,17.7503323 11.5410032,17.8294339 L11.5410032,17.8294339 L11.5410032,24.1575589 C11.8398313,24.4212307 11.9892454,24.5706448 11.9892454,24.605801 C12.0507688,24.605801 12.0815306,24.5750393 12.0815306,24.5135159 C12.1869993,24.5574612 12.6000853,24.6189846 13.3207884,24.6980862 C13.3207884,24.6365628 13.3515501,24.605801 13.4130735,24.605801 C13.4130735,24.6673245 13.4438353,24.6980862 13.5053587,24.6980862 L13.5053587,24.6980862 L17.5131712,24.6980862 Z M36.8785374,24.6321682 C37.9947483,24.6321682 39.2384006,24.456387 40.6094944,24.1048245 C43.4219944,23.0325589 45.5006077,21.3890042 46.8453342,19.1741604 C46.8453342,19.112637 46.528928,19.0818753 45.8961155,19.0818753 C45.8961155,18.9851956 45.9532444,18.9280667 46.0675022,18.9104885 L46.0675022,18.9104885 L46.9244358,18.9104885 L47.2803928,18.6468167 L48.928342,18.6468167 L49.0997288,18.5677151 C50.1983616,16.6165432 50.747678,14.678555 50.747678,12.7537503 C50.747678,12.6219143 50.5718967,12.5384182 50.2203342,12.503262 L50.2203342,12.503262 L50.1412327,12.503262 L49.9566624,12.5823635 C49.9566624,12.5296292 49.9302952,12.503262 49.8775608,12.503262 L49.8775608,12.503262 L49.0074436,12.503262 C48.9107639,12.503262 48.853635,12.4461331 48.8360569,12.3318753 C48.8360569,11.2332425 48.7217991,10.683926 48.4932835,10.683926 L48.4932835,10.683926 L48.3218967,10.683926 C48.1285374,10.683926 47.9835178,10.7102932 47.8868381,10.7630276 C47.7550022,10.7102932 47.2628147,10.683926 46.4102756,10.683926 L46.4102756,10.683926 L46.4102756,10.5916409 L48.4932835,10.5916409 L48.7437717,10.4202542 C48.0933811,7.95052761 47.1134006,5.98617214 45.8038303,4.52718776 L45.8038303,4.52718776 L45.8038303,4.4480862 C45.9971897,4.4480862 46.1422092,4.41732448 46.2388889,4.35580105 C46.2388889,4.41732448 46.2652561,4.4480862 46.3179905,4.4480862 L46.3179905,4.4480862 L46.7530491,4.4480862 C46.8673069,4.4480862 46.9244358,4.3909573 46.9244358,4.27669948 L46.9244358,4.27669948 L46.9244358,4.18441433 L46.5025608,4.09212917 L45.5401585,4.09212917 C45.188596,3.86361355 44.841428,3.74935573 44.4986545,3.74935573 C43.1011936,2.65072292 42.2969944,2.10140651 42.0860569,2.10140651 L42.0860569,2.10140651 L42.0860569,1.9300198 C42.2091038,1.9300198 42.3233616,1.90365261 42.4288303,1.85091823 C41.0137913,0.980801046 39.282346,0.545742452 37.2344944,0.545742452 C34.2725803,0.545742452 32.0181858,1.00716823 30.4713108,1.9300198 L30.4713108,1.9300198 L29.522092,1.9300198 C28.3355686,2.65072292 27.5269749,3.20003933 27.0963108,3.57796901 C27.0963108,3.69222683 27.2105686,3.74935573 27.4390842,3.74935573 L27.4390842,3.74935573 L27.3599827,3.92074245 L27.4390842,4.09212917 L27.8741428,4.01302761 L27.966428,4.01302761 C28.115842,4.01302761 28.2872288,4.07015651 28.4805881,4.18441433 C28.4805881,4.36019558 28.107053,4.4480862 27.3599827,4.4480862 C26.9381077,4.4480862 26.4722874,4.79525417 25.9625217,5.48959011 C24.6353733,7.51986355 23.888303,9.53695339 23.7213108,11.5408596 C23.7213108,11.6023831 23.747678,11.6902737 23.8004124,11.8045315 C23.8619358,11.8045315 23.9498264,11.7781643 24.0640842,11.72543 C24.178342,11.7781643 24.2662327,11.8045315 24.3277561,11.8045315 L24.3277561,11.8045315 L24.3277561,12.147305 C23.8619358,12.2088284 23.6290256,12.296719 23.6290256,12.4109768 C23.6290256,12.5252346 23.6861545,12.5823635 23.8004124,12.5823635 L23.8004124,12.5823635 L25.2769749,12.5823635 C25.4967014,12.9866604 25.641721,13.1888089 25.7120335,13.1888089 L25.7120335,13.1888089 L28.8233616,13.1888089 C28.9376194,13.1888089 28.9947483,13.2459378 28.9947483,13.3601956 L28.9947483,13.3601956 L28.9947483,13.4524807 L27.7027561,13.4524807 C27.2984592,13.4524807 26.6612522,13.4832425 25.791135,13.5447659 C25.791135,13.4832425 25.7647678,13.4524807 25.7120335,13.4524807 L25.7120335,13.4524807 L25.6197483,13.6238675 L25.6197483,13.8875393 C25.7076389,15.3025784 26.1998264,16.862637 27.0963108,18.5677151 L27.0963108,18.5677151 L26.6612522,18.6468167 L25.5406467,18.6468167 C25.4175999,18.6468167 25.3560764,18.7347073 25.3560764,18.9104885 L25.3560764,18.9104885 L24.4991428,18.9104885 L24.4991428,19.0818753 L25.2769749,19.0818753 C25.4088108,19.0818753 25.5230686,19.112637 25.6197483,19.1741604 C26.2965061,20.1321682 27.1929905,21.081387 28.3092014,22.0218167 C29.7506077,23.2698635 31.7413303,24.109219 34.2813694,24.5398831 C34.3428928,24.5398831 34.4307835,24.5091214 34.5450413,24.4475979 C34.791135,24.5706448 35.2525608,24.6321682 35.9293186,24.6321682 L35.9293186,24.6321682 L36.8785374,24.6321682 Z M36.272092,19.5169339 C35.9205295,19.5169339 35.2305881,19.3719143 34.2022678,19.0818753 L34.2022678,19.0818753 L33.1607639,19.0818753 L33.1607639,18.9104885 L33.6749241,18.9104885 L33.6749241,18.8182034 L33.5958225,18.6468167 L34.8087131,18.6468167 L34.9800999,18.5677151 C34.9800999,18.4886135 34.6592991,18.2293362 34.0176975,17.7898831 C32.8575413,16.656094 32.1368381,15.38168 31.8555881,13.9666409 L31.8555881,13.9666409 L31.8555881,13.5447659 C33.2618381,13.4832425 34.0704319,13.4524807 34.2813694,13.4524807 L34.2813694,13.4524807 L34.716428,13.5447659 C34.716428,13.4832425 34.7471897,13.4524807 34.8087131,13.4524807 C34.8702366,13.4524807 34.9537327,13.4832425 35.0592014,13.5447659 C35.1734592,13.5447659 35.2305881,13.4832425 35.2305881,13.3601956 L35.2305881,13.3601956 L35.2305881,13.1888089 L34.5450413,13.1888089 C33.938596,13.1888089 33.0157444,13.1624417 31.7764866,13.1097073 C31.697385,12.7054104 31.6094944,12.503262 31.5128147,12.503262 L31.5128147,12.503262 L29.9571506,12.503262 L29.9571506,12.2395901 L30.3790256,12.2395901 C30.5020725,12.2395901 30.563596,12.1824612 30.563596,12.0682034 L30.563596,12.0682034 L30.563596,11.8968167 L30.0362522,11.5408596 L30.0362522,11.3694729 C30.0362522,11.0618557 30.2384006,10.3982815 30.6426975,9.37875026 C32.1544163,6.90023464 34.1187717,5.66097683 36.5357639,5.66097683 C37.3619358,5.66097683 38.4298069,6.0652737 39.7393772,6.87386745 C40.9259006,7.70003933 41.7916233,8.88216823 42.3365452,10.4202542 L42.3365452,10.4202542 L42.3365452,10.5125393 L41.044553,10.5125393 C40.6402561,10.5125393 40.0030491,10.5389065 39.1329319,10.5916409 L39.1329319,10.5916409 L39.1329319,10.7630276 L42.0860569,10.7630276 L42.5079319,10.8553128 C42.5079319,12.00668 42.6265842,12.5823635 42.8638889,12.5823635 L42.8638889,12.5823635 L43.4703342,12.5823635 L43.641721,12.503262 C44.21301,12.5735745 44.4986545,12.6570706 44.4986545,12.7537503 L44.4986545,12.7537503 L44.4986545,13.4524807 C44.4986545,13.6194729 44.3272678,14.2830471 43.9844944,15.4432034 C43.0967991,17.0955471 42.0860569,18.1634182 40.9522678,18.6468167 C40.8907444,18.6468167 40.8028538,18.6204495 40.688596,18.5677151 C40.5919163,18.6204495 40.4776585,18.6468167 40.3458225,18.6468167 L40.3458225,18.6468167 L39.4757053,18.6468167 C38.728635,18.8225979 38.3243381,18.9104885 38.2628147,18.9104885 L38.2628147,18.9104885 L37.313596,18.9104885 L37.313596,19.0818753 L37.7486545,19.0818753 C37.8629124,19.0818753 37.9200413,19.1390042 37.9200413,19.253262 C37.1553928,19.4290432 36.6060764,19.5169339 36.272092,19.5169339 Z M25.013303,13.4524807 L25.1846897,13.3601956 C25.1846897,13.2635159 25.1275608,13.206387 25.013303,13.1888089 L25.013303,13.1888089 L24.0640842,13.1888089 L24.0640842,13.4524807 L25.013303,13.4524807 Z M34.8087131,15.4432034 C34.922971,15.4432034 34.9800999,15.3860745 34.9800999,15.2718167 L34.9800999,15.2718167 L34.9800999,15.0081448 C34.9800999,14.9114651 34.922971,14.8543362 34.8087131,14.8367581 L34.8087131,14.8367581 L34.716428,14.8367581 C34.6197483,14.8367581 34.5626194,14.893887 34.5450413,15.0081448 L34.5450413,15.0081448 L34.5450413,15.2718167 C34.5450413,15.3860745 34.6021702,15.4432034 34.716428,15.4432034 L34.716428,15.4432034 L34.8087131,15.4432034 Z M24.9342014,16.3924221 L25.1846897,16.2210354 L25.1055881,15.7859768 L24.5782444,15.7859768 L24.4068577,15.878262 C24.4683811,16.2210354 24.5562717,16.3924221 24.6705295,16.3924221 L24.6705295,16.3924221 L24.9342014,16.3924221 Z M20.8408582,49.7610587 C20.9639051,49.7610587 21.0254285,49.6995353 21.0254285,49.5764884 L21.0254285,49.5764884 L21.0254285,48.7722892 L20.9331434,48.6009025 L20.392616,48.680004 C20.0762098,48.6272696 19.896034,48.6009025 19.8520887,48.6009025 L19.8520887,48.6009025 L19.8520887,48.4163321 C20.0542371,48.4163321 20.2036512,48.3855704 20.3003309,48.324047 L20.3003309,48.324047 L20.8408582,48.4163321 C20.9639051,48.4163321 21.0254285,48.3592032 21.0254285,48.2449454 L21.0254285,48.2449454 L21.0254285,45.5554923 L21.1045301,45.1072501 L20.9331434,45.014965 L14.2095106,45.014965 L13.3130262,44.9226798 C13.3130262,44.9842032 13.2558973,45.014965 13.1416395,45.014965 C13.0361707,45.014965 12.9746473,44.9534415 12.9570691,44.8303946 L12.9570691,44.8303946 L12.9570691,39.464672 C12.9570691,39.3679923 12.7505262,39.2757071 12.3374402,39.1878165 L12.3374402,39.1878165 L12.4165418,39.0164298 L12.4165418,29.695629 C12.4165418,29.5989493 12.3594129,29.5418204 12.2451551,29.5242423 L12.2451551,29.5242423 L11.2563856,29.5242423 L11.2563856,29.339672 C11.2563856,29.2429923 11.317909,29.1858634 11.4409559,29.1682853 L11.4409559,29.1682853 L12.2451551,29.1682853 L12.9570691,28.6277579 L12.9570691,26.742504 C12.9570691,26.6282462 12.8076551,26.5711173 12.508827,26.5711173 C12.4473035,25.8504142 12.3594129,25.4900626 12.2451551,25.4900626 L12.2451551,25.4900626 L6.06204961,25.4900626 C5.96536993,25.4900626 5.90824102,25.5515861 5.89066289,25.6746329 L5.89066289,25.6746329 L5.89066289,26.4788321 C6.30374883,26.4788321 6.5102918,26.6546134 6.5102918,27.0061759 L6.5102918,27.0061759 L6.5102918,28.6277579 C6.5102918,28.7420157 6.42240118,28.7991446 6.24661993,28.7991446 C5.84232305,29.1419181 5.36331914,29.3220939 4.80960821,29.339672 L4.80960821,29.339672 L4.80960821,29.4319571 C5.53031133,29.4934806 5.89066289,29.5813712 5.89066289,29.695629 L5.89066289,29.695629 L5.89066289,39.108715 C5.89066289,39.1790275 6.09720586,39.3284415 6.5102918,39.5569571 L6.5102918,39.5569571 L6.5102918,48.1526603 C6.41361211,48.3284415 6.32572149,48.4163321 6.24661993,48.4163321 L6.24661993,48.4163321 L5.44242071,48.4163321 L5.44242071,48.6009025 L6.24661993,48.6009025 C6.42240118,48.6887931 6.5102918,48.7766837 6.5102918,48.8645743 L6.5102918,48.8645743 L6.5102918,49.6687736 C7.61771368,49.730297 8.42191289,49.7610587 8.92288946,49.7610587 L8.92288946,49.7610587 L20.8408582,49.7610587 Z M35.0591199,49.5764884 C36.1753309,49.5764884 37.4189832,49.4007071 38.790077,49.0491446 C41.602577,47.976879 43.6811902,46.3333243 45.0259168,44.1184806 C45.0259168,44.0569571 44.7095106,44.0261954 44.0766981,44.0261954 C44.0766981,43.9295157 44.133827,43.8723868 44.2480848,43.8548087 L44.2480848,43.8548087 L45.1050184,43.8548087 L45.4609754,43.5911368 L47.1089246,43.5911368 L47.2803113,43.5120353 C48.3789441,41.5608634 48.9282606,39.6228751 48.9282606,37.6980704 C48.9282606,37.5662345 48.7524793,37.4827384 48.4009168,37.4475821 L48.4009168,37.4475821 L48.3218152,37.4475821 L48.1372449,37.5266837 C48.1372449,37.4739493 48.1108777,37.4475821 48.0581434,37.4475821 L48.0581434,37.4475821 L47.1880262,37.4475821 C47.0913465,37.4475821 47.0342176,37.3904532 47.0166395,37.2761954 C47.0166395,36.1775626 46.9023816,35.6282462 46.673866,35.6282462 L46.673866,35.6282462 L46.5024793,35.6282462 C46.3091199,35.6282462 46.1641004,35.6546134 46.0674207,35.7073478 C45.9355848,35.6546134 45.4433973,35.6282462 44.5908582,35.6282462 L44.5908582,35.6282462 L44.5908582,35.5359611 L46.673866,35.5359611 L46.9243543,35.3645743 C46.2739637,32.8948478 45.2939832,30.9304923 43.9844129,29.4715079 L43.9844129,29.4715079 L43.9844129,29.3924064 C44.1777723,29.3924064 44.3227918,29.3616446 44.4194715,29.3001212 C44.4194715,29.3616446 44.4458387,29.3924064 44.4985731,29.3924064 L44.4985731,29.3924064 L44.9336316,29.3924064 C45.0478895,29.3924064 45.1050184,29.3352775 45.1050184,29.2210196 L45.1050184,29.2210196 L45.1050184,29.1287345 L44.6831434,29.0364493 L43.720741,29.0364493 C43.3691785,28.8079337 43.0220106,28.6936759 42.6792371,28.6936759 C41.2817762,27.5950431 40.477577,27.0457267 40.2666395,27.0457267 L40.2666395,27.0457267 L40.2666395,26.87434 C40.3896863,26.87434 40.5039441,26.8479728 40.6094129,26.7952384 C39.1943738,25.9251212 37.4629285,25.4900626 35.415077,25.4900626 C32.4531629,25.4900626 30.1987684,25.9514884 28.6518934,26.87434 L28.6518934,26.87434 L27.7026746,26.87434 C26.5161512,27.5950431 25.7075574,28.1443595 25.2768934,28.5222892 C25.2768934,28.636547 25.3911512,28.6936759 25.6196668,28.6936759 L25.6196668,28.6936759 L25.5405652,28.8650626 L25.6196668,29.0364493 L26.0547254,28.9573478 L26.1470106,28.9573478 C26.2964246,28.9573478 26.4678113,29.0144767 26.6611707,29.1287345 C26.6611707,29.3045157 26.2876356,29.3924064 25.5405652,29.3924064 C25.1186902,29.3924064 24.6528699,29.7395743 24.1431043,30.4339103 C22.8159559,32.4641837 22.0688856,34.4812736 21.9018934,36.4851798 C21.9018934,36.5467032 21.9282606,36.6345939 21.9809949,36.7488517 C22.0425184,36.7488517 22.130409,36.7224845 22.2446668,36.6697501 C22.3589246,36.7224845 22.4468152,36.7488517 22.5083387,36.7488517 L22.5083387,36.7488517 L22.5083387,37.0916251 C22.0425184,37.1531486 21.8096082,37.2410392 21.8096082,37.355297 C21.8096082,37.4695548 21.8667371,37.5266837 21.9809949,37.5266837 L21.9809949,37.5266837 L23.4575574,37.5266837 C23.677284,37.9309806 23.8223035,38.133129 23.892616,38.133129 L23.892616,38.133129 L27.0039441,38.133129 C27.118202,38.133129 27.1753309,38.1902579 27.1753309,38.3045157 L27.1753309,38.3045157 L27.1753309,38.3968009 L25.8833387,38.3968009 C25.4790418,38.3968009 24.8418348,38.4275626 23.9717176,38.4890861 C23.9717176,38.4275626 23.9453504,38.3968009 23.892616,38.3968009 L23.892616,38.3968009 L23.8003309,38.5681876 L23.8003309,38.8318595 C23.8882215,40.2468986 24.380409,41.8069571 25.2768934,43.5120353 L25.2768934,43.5120353 L24.8418348,43.5911368 L23.7212293,43.5911368 C23.5981824,43.5911368 23.536659,43.6790275 23.536659,43.8548087 L23.536659,43.8548087 L22.6797254,43.8548087 L22.6797254,44.0261954 L23.4575574,44.0261954 C23.5893934,44.0261954 23.7036512,44.0569571 23.8003309,44.1184806 C24.4770887,45.0764884 25.3735731,46.0257071 26.489784,46.9661368 C27.9311902,48.2141837 29.9219129,49.0535392 32.461952,49.4842032 C32.5234754,49.4842032 32.611366,49.4534415 32.7256238,49.3919181 C32.9717176,49.514965 33.4331434,49.5764884 34.1099012,49.5764884 L34.1099012,49.5764884 L35.0591199,49.5764884 Z M34.4526746,44.461254 C34.1011121,44.461254 33.4111707,44.3162345 32.3828504,44.0261954 L32.3828504,44.0261954 L31.3413465,44.0261954 L31.3413465,43.8548087 L31.8555066,43.8548087 L31.8555066,43.7625236 L31.7764051,43.5911368 L32.9892957,43.5911368 L33.1606824,43.5120353 C33.1606824,43.4329337 32.8398816,43.1736564 32.1982801,42.7342032 C31.0381238,41.6004142 30.3174207,40.3260001 30.0361707,38.9109611 L30.0361707,38.9109611 L30.0361707,38.4890861 C31.4424207,38.4275626 32.2510145,38.3968009 32.461952,38.3968009 L32.461952,38.3968009 L32.8970106,38.4890861 C32.8970106,38.4275626 32.9277723,38.3968009 32.9892957,38.3968009 C33.0508191,38.3968009 33.1343152,38.4275626 33.239784,38.4890861 C33.3540418,38.4890861 33.4111707,38.4275626 33.4111707,38.3045157 L33.4111707,38.3045157 L33.4111707,38.133129 L32.7256238,38.133129 C32.1191785,38.133129 31.196327,38.1067618 29.9570691,38.0540275 C29.8779676,37.6497306 29.790077,37.4475821 29.6933973,37.4475821 L29.6933973,37.4475821 L28.1377332,37.4475821 L28.1377332,37.1839103 L28.5596082,37.1839103 C28.6826551,37.1839103 28.7441785,37.1267814 28.7441785,37.0125236 L28.7441785,37.0125236 L28.7441785,36.8411368 L28.2168348,36.4851798 L28.2168348,36.3137931 C28.2168348,36.0061759 28.4189832,35.3426017 28.8232801,34.3230704 C30.3349988,31.8445548 32.2993543,30.605297 34.7163465,30.605297 C35.5425184,30.605297 36.6103895,31.0095939 37.9199598,31.8181876 C39.1064832,32.6443595 39.9722059,33.8264884 40.5171277,35.3645743 L40.5171277,35.3645743 L40.5171277,35.4568595 L39.2251356,35.4568595 C38.8208387,35.4568595 38.1836316,35.4832267 37.3135145,35.5359611 L37.3135145,35.5359611 L37.3135145,35.7073478 L40.2666395,35.7073478 L40.6885145,35.7996329 C40.6885145,36.9510001 40.8071668,37.5266837 41.0444715,37.5266837 L41.0444715,37.5266837 L41.6509168,37.5266837 L41.8223035,37.4475821 C42.3935926,37.5178946 42.6792371,37.6013907 42.6792371,37.6980704 L42.6792371,37.6980704 L42.6792371,38.3968009 C42.6792371,38.5637931 42.5078504,39.2273673 42.165077,40.3875236 C41.2773816,42.0398673 40.2666395,43.1077384 39.1328504,43.5911368 C39.071327,43.5911368 38.9834363,43.5647696 38.8691785,43.5120353 C38.7724988,43.5647696 38.658241,43.5911368 38.5264051,43.5911368 L38.5264051,43.5911368 L37.6562879,43.5911368 C36.9092176,43.7669181 36.5049207,43.8548087 36.4433973,43.8548087 L36.4433973,43.8548087 L35.4941785,43.8548087 L35.4941785,44.0261954 L35.9292371,44.0261954 C36.0434949,44.0261954 36.1006238,44.0833243 36.1006238,44.1975821 C35.3359754,44.3733634 34.786659,44.461254 34.4526746,44.461254 Z M23.1938856,38.3968009 L23.3652723,38.3045157 C23.3652723,38.2078361 23.3081434,38.1507071 23.1938856,38.133129 L23.1938856,38.133129 L22.2446668,38.133129 L22.2446668,38.3968009 L23.1938856,38.3968009 Z M32.9892957,40.3875236 C33.1035535,40.3875236 33.1606824,40.3303946 33.1606824,40.2161368 L33.1606824,40.2161368 L33.1606824,39.952465 C33.1606824,39.8557853 33.1035535,39.7986564 32.9892957,39.7810782 L32.9892957,39.7810782 L32.8970106,39.7810782 C32.8003309,39.7810782 32.743202,39.8382071 32.7256238,39.952465 L32.7256238,39.952465 L32.7256238,40.2161368 C32.7256238,40.3303946 32.7827527,40.3875236 32.8970106,40.3875236 L32.8970106,40.3875236 L32.9892957,40.3875236 Z M23.114784,41.3367423 L23.3652723,41.1653556 L23.2861707,40.730297 L22.758827,40.730297 L22.5874402,40.8225821 C22.6489637,41.1653556 22.7368543,41.3367423 22.8511121,41.3367423 L22.8511121,41.3367423 L23.114784,41.3367423 Z" transform="translate(26.688286, 25.153401) rotate(1.000000) translate(-26.688286, -25.153401)"/><path id="YOLO" fill="#3F49EA" d="M15.4905725,24.2110272 L15.9388147,24.118742 C15.9388147,24.1802655 15.9695764,24.2110272 16.0310998,24.2110272 C16.2068811,24.2110272 16.2947717,24.1495038 16.2947717,24.0264569 L16.2947717,24.0264569 L15.9388147,23.6704998 L15.9388147,17.1709881 C15.9388147,17.0655194 15.8772913,17.0039959 15.7542444,16.9864178 L15.7542444,16.9864178 L14.3304163,16.9864178 L13.8821741,16.9073163 C13.8821741,16.9600506 13.8558069,16.9864178 13.8030725,16.9864178 C13.6976038,16.9336834 13.5789514,16.9073163 13.4471155,16.9073163 L13.4471155,16.9073163 L13.4471155,16.8150311 L15.3191858,16.8150311 C15.4334436,16.8150311 15.4905725,16.7535077 15.4905725,16.6304608 L15.4905725,16.6304608 L15.4905725,16.0108319 L14.9500452,15.6548748 L14.9500452,13.1631756 L15.0423303,12.9786053 L15.2269006,13.0708905 L15.6751428,13.0708905 C15.9300256,13.0708905 16.1673303,13.009367 16.3870569,12.8863202 C16.3870569,12.7896405 16.3255334,12.7325116 16.2024866,12.7149334 L16.2024866,12.7149334 L15.0423303,12.7149334 C15.0423303,12.6182538 16.5892053,10.2100506 19.6829553,5.49032406 L19.6829553,5.49032406 L20.2102991,5.49032406 L20.7508264,4.96298031 L21.7264123,4.96298031 L21.9109827,4.87069516 C21.9109827,4.76522641 21.8494592,4.70370297 21.7264123,4.68612485 L21.7264123,4.68612485 L20.9222131,4.68612485 C21.4583459,3.67538266 22.4383264,2.1900311 23.8621545,0.230070158 C23.8621545,0.13339047 23.8050256,0.0762615639 23.6907678,0.0586834389 L23.6907678,0.0586834389 L16.8221155,0.0586834389 C14.923678,2.97665219 13.9744592,4.46200375 13.9744592,4.51473813 C13.9744592,4.62899594 14.0359827,4.68612485 14.1590295,4.68612485 L14.1590295,4.68612485 L14.9500452,4.68612485 L14.9500452,4.87069516 L14.5149866,4.96298031 L14.0667444,4.87069516 C13.8030725,4.9322186 13.5657678,5.10799985 13.3548303,5.39803891 C12.88901,5.39803891 12.5022913,5.69686703 12.1946741,6.29452328 C12.4056116,6.8306561 12.5813928,7.0987225 12.7220178,7.0987225 C12.7220178,7.16024594 12.5769983,7.48544125 12.2869592,8.07430844 L12.2869592,8.07430844 L12.1023889,8.07430844 L10.5862756,5.49032406 C10.6829553,5.49032406 10.8016077,5.43319516 10.9422327,5.31893735 C10.9422327,5.25741391 10.9158655,5.16512875 10.8631311,5.04208188 L10.8631311,5.04208188 L10.8631311,4.96298031 L11.838717,4.96298031 L11.838717,4.68612485 L10.6785608,4.68612485 C10.5818811,4.67733578 10.3753381,4.41366391 10.0589319,3.89510922 L10.0589319,3.89510922 L9.42611938,3.97421078 L9.07016234,3.97421078 C8.89438109,3.88632016 8.80649047,3.79842953 8.80649047,3.71053891 L8.80649047,3.71053891 L8.80649047,3.61825375 C9.33383422,3.55673031 9.65902953,3.49960141 9.78207641,3.44686703 C8.85043578,1.79452328 8.10776,0.665128751 7.55404906,0.0586834389 L7.55404906,0.0586834389 L0.606295157,0.0586834389 C0.606295157,0.295988126 1.31820922,1.39462094 2.74203734,3.35458188 C2.74203734,3.46883969 2.38608031,3.55673031 1.67416625,3.61825375 C1.82358031,3.85555844 1.94223266,3.97421078 2.03012328,3.97421078 L2.03012328,3.97421078 L3.01889281,3.97421078 L3.63852172,4.68612485 L4.61410766,4.68612485 C4.73715453,4.68612485 4.79867797,4.74764828 4.79867797,4.87069516 L4.79867797,4.87069516 L4.35043578,4.96298031 L3.80990844,4.96298031 L3.90219359,5.39803891 C3.77035766,5.39803891 3.65170531,5.42880063 3.54623656,5.49032406 C6.38510375,9.93758969 8.01986938,12.3457928 8.45053344,12.7149334 L8.45053344,12.7149334 L8.89877563,12.7149334 L9.78207641,12.8072186 C9.78207641,12.9038983 9.63705688,12.9917889 9.34701781,13.0708905 C9.34701781,13.009367 9.31625609,12.9786053 9.25473266,12.9786053 L9.25473266,12.9786053 L8.63510375,12.9786053 L8.35824828,13.1631756 L8.45053344,13.3345623 L8.45053344,15.0352459 L8.35824828,15.6548748 C8.78012328,15.813078 8.99106078,15.9317303 8.99106078,16.0108319 L8.99106078,16.0108319 L8.99106078,16.6304608 C8.99106078,16.7535077 8.92953734,16.8150311 8.80649047,16.8150311 L8.80649047,16.8150311 L6.842135,16.8150311 L6.67074828,16.9073163 C6.67074828,17.0215741 6.72787719,17.078703 6.842135,17.078703 L6.842135,17.078703 L6.93442016,17.078703 L7.11899047,16.9864178 L7.11899047,17.078703 C7.18051391,17.078703 7.26840453,17.0479413 7.38266234,16.9864178 L7.38266234,16.9864178 L7.91000609,17.078703 L9.25473266,17.078703 C9.43051391,17.1753827 9.51840453,17.2632733 9.51840453,17.3423748 L9.51840453,17.3423748 L9.51840453,23.6704998 C9.81723266,23.9341717 9.96664672,24.0835858 9.96664672,24.118742 C10.0281702,24.118742 10.0589319,24.0879803 10.0589319,24.0264569 C10.1644006,24.0704022 10.5774866,24.1319256 11.2981897,24.2110272 C11.2981897,24.1495038 11.3289514,24.118742 11.3904748,24.118742 C11.3904748,24.1802655 11.4212366,24.2110272 11.48276,24.2110272 L11.48276,24.2110272 L15.4905725,24.2110272 Z M34.8559387,24.1451092 C35.9721496,24.1451092 37.215802,23.969328 38.5868957,23.6177655 C41.3993957,22.5454998 43.478009,20.9019452 44.8227355,18.6871014 C44.8227355,18.625578 44.5063293,18.5948163 43.8735168,18.5948163 C43.8735168,18.4981366 43.9306457,18.4410077 44.0449035,18.4234295 L44.0449035,18.4234295 L44.9018371,18.4234295 L45.2577941,18.1597577 L46.9057434,18.1597577 L47.0771301,18.0806561 C48.1757629,16.1294842 48.7250793,14.1914959 48.7250793,12.2666913 C48.7250793,12.1348553 48.549298,12.0513592 48.1977355,12.016203 L48.1977355,12.016203 L48.118634,12.016203 L47.9340637,12.0953045 C47.9340637,12.0425702 47.9076965,12.016203 47.8549621,12.016203 L47.8549621,12.016203 L46.9848449,12.016203 C46.8881652,12.016203 46.8310363,11.9590741 46.8134582,11.8448163 C46.8134582,10.7461834 46.6992004,10.196867 46.4706848,10.196867 L46.4706848,10.196867 L46.299298,10.196867 C46.1059387,10.196867 45.9609191,10.2232342 45.8642395,10.2759686 C45.7324035,10.2232342 45.240216,10.196867 44.387677,10.196867 L44.387677,10.196867 L44.387677,10.1045819 L46.4706848,10.1045819 L46.721173,9.93319516 C46.0707824,7.4634686 45.090802,5.49911313 43.7812316,4.04012875 L43.7812316,4.04012875 L43.7812316,3.96102719 C43.974591,3.96102719 44.1196105,3.93026547 44.2162902,3.86874203 C44.2162902,3.93026547 44.2426574,3.96102719 44.2953918,3.96102719 L44.2953918,3.96102719 L44.7304504,3.96102719 C44.8447082,3.96102719 44.9018371,3.90389828 44.9018371,3.78964047 L44.9018371,3.78964047 L44.9018371,3.69735531 L44.4799621,3.60507016 L43.5175598,3.60507016 C43.1659973,3.37655453 42.8188293,3.26229672 42.4760559,3.26229672 C41.0785949,2.16366391 40.2743957,1.6143475 40.0634582,1.6143475 L40.0634582,1.6143475 L40.0634582,1.44296078 C40.1865051,1.44296078 40.3007629,1.4165936 40.4062316,1.36385922 C38.9911926,0.493742033 37.2597473,0.0586834389 35.2118957,0.0586834389 C32.2499816,0.0586834389 29.9955871,0.52010922 28.4487121,1.44296078 L28.4487121,1.44296078 L27.4994934,1.44296078 C26.3129699,2.16366391 25.5043762,2.71298031 25.0737121,3.09091 C25.0737121,3.20516781 25.1879699,3.26229672 25.4164855,3.26229672 L25.4164855,3.26229672 L25.337384,3.43368344 L25.4164855,3.60507016 L25.8515441,3.5259686 L25.9438293,3.5259686 C26.0932434,3.5259686 26.2646301,3.5830975 26.4579895,3.69735531 C26.4579895,3.87313656 26.0844543,3.96102719 25.337384,3.96102719 C24.915509,3.96102719 24.4496887,4.30819516 23.939923,5.0025311 C22.6127746,7.03280453 21.8657043,9.04989438 21.6987121,11.0538006 C21.6987121,11.1153241 21.7250793,11.2032147 21.7778137,11.3174725 C21.8393371,11.3174725 21.9272277,11.2911053 22.0414855,11.2383709 C22.1557434,11.2911053 22.243634,11.3174725 22.3051574,11.3174725 L22.3051574,11.3174725 L22.3051574,11.6602459 C21.8393371,11.7217694 21.606427,11.80966 21.606427,11.9239178 C21.606427,12.0381756 21.6635559,12.0953045 21.7778137,12.0953045 L21.7778137,12.0953045 L23.2543762,12.0953045 C23.4741027,12.4996014 23.6191223,12.7017498 23.6894348,12.7017498 L23.6894348,12.7017498 L26.8007629,12.7017498 C26.9150207,12.7017498 26.9721496,12.7588788 26.9721496,12.8731366 L26.9721496,12.8731366 L26.9721496,12.9654217 L25.6801574,12.9654217 C25.2758605,12.9654217 24.6386535,12.9961834 23.7685363,13.0577069 C23.7685363,12.9961834 23.7421691,12.9654217 23.6894348,12.9654217 L23.6894348,12.9654217 L23.5971496,13.1368084 L23.5971496,13.4004803 C23.6850402,14.8155194 24.1772277,16.375578 25.0737121,18.0806561 L25.0737121,18.0806561 L24.6386535,18.1597577 L23.518048,18.1597577 C23.3950012,18.1597577 23.3334777,18.2476483 23.3334777,18.4234295 L23.3334777,18.4234295 L22.4765441,18.4234295 L22.4765441,18.5948163 L23.2543762,18.5948163 C23.3862121,18.5948163 23.5004699,18.625578 23.5971496,18.6871014 C24.2739074,19.6451092 25.1703918,20.594328 26.2866027,21.5347577 C27.728009,22.7828045 29.7187316,23.62216 32.2587707,24.0528241 C32.3202941,24.0528241 32.4081848,24.0220623 32.5224426,23.9605389 C32.7685363,24.0835858 33.2299621,24.1451092 33.9067199,24.1451092 L33.9067199,24.1451092 L34.8559387,24.1451092 Z M34.2494934,19.0298748 C33.8979309,19.0298748 33.2079895,18.8848553 32.1796691,18.5948163 L32.1796691,18.5948163 L31.1381652,18.5948163 L31.1381652,18.4234295 L31.6523254,18.4234295 L31.6523254,18.3311444 L31.5732238,18.1597577 L32.7861145,18.1597577 L32.9575012,18.0806561 C32.9575012,18.0015545 32.6367004,17.7422772 31.9950988,17.3028241 C30.8349426,16.169035 30.1142395,14.8946209 29.8329895,13.4795819 L29.8329895,13.4795819 L29.8329895,13.0577069 C31.2392395,12.9961834 32.0478332,12.9654217 32.2587707,12.9654217 L32.2587707,12.9654217 L32.6938293,13.0577069 C32.6938293,12.9961834 32.724591,12.9654217 32.7861145,12.9654217 C32.8476379,12.9654217 32.931134,12.9961834 33.0366027,13.0577069 C33.1508605,13.0577069 33.2079895,12.9961834 33.2079895,12.8731366 L33.2079895,12.8731366 L33.2079895,12.7017498 L32.3492036,12.7010961 C31.7455911,12.6967379 30.8804859,12.6705886 29.7538879,12.6226483 C29.6747863,12.2183514 29.5868957,12.016203 29.490216,12.016203 L29.490216,12.016203 L27.934552,12.016203 L27.934552,11.7525311 L28.356427,11.7525311 C28.4794738,11.7525311 28.5409973,11.6954022 28.5409973,11.5811444 L28.5409973,11.5811444 L28.5409973,11.4097577 L28.0136535,11.0538006 L28.0136535,10.8824139 C28.0136535,10.5747967 28.215802,9.9112225 28.6200988,8.89169125 C30.1318176,6.41317563 32.096173,5.17391781 34.5131652,5.17391781 C35.3393371,5.17391781 36.4072082,5.57821469 37.7167785,6.38680844 C38.903302,7.21298031 39.7690246,8.39510922 40.3139465,9.93319516 L40.3139465,9.93319516 L40.3139465,10.0254803 L39.0219543,10.0254803 C38.6176574,10.0254803 37.9804504,10.0518475 37.1103332,10.1045819 L37.1103332,10.1045819 L37.1103332,10.2759686 L40.0634582,10.2759686 L40.4853332,10.3682538 C40.4853332,11.5196209 40.6039855,12.0953045 40.8412902,12.0953045 L40.8412902,12.0953045 L41.4477355,12.0953045 L41.6191223,12.016203 C42.1904113,12.0865155 42.4760559,12.1700116 42.4760559,12.2666913 L42.4760559,12.2666913 L42.4760559,12.9654217 C42.4760559,13.1324139 42.3046691,13.7959881 41.9618957,14.9561444 C41.0742004,16.6084881 40.0634582,17.6763592 38.9296691,18.1597577 C38.8681457,18.1597577 38.7802551,18.1333905 38.6659973,18.0806561 C38.5693176,18.1333905 38.4550598,18.1597577 38.3232238,18.1597577 L38.3232238,18.1597577 L37.4531066,18.1597577 C36.7060363,18.3355389 36.3017395,18.4234295 36.240216,18.4234295 L36.240216,18.4234295 L35.2909973,18.4234295 L35.2909973,18.5948163 L35.7260559,18.5948163 C35.8403137,18.5948163 35.8974426,18.6519452 35.8974426,18.766203 C35.1327941,18.9419842 34.5834777,19.0298748 34.2494934,19.0298748 Z M22.9907043,12.9654217 L23.162091,12.8731366 C23.162091,12.7764569 23.1049621,12.719328 22.9907043,12.7017498 L22.9907043,12.7017498 L22.0414855,12.7017498 L22.0414855,12.9654217 L22.9907043,12.9654217 Z M32.7861145,14.9561444 C32.9003723,14.9561444 32.9575012,14.8990155 32.9575012,14.7847577 L32.9575012,14.7847577 L32.9575012,14.5210858 C32.9575012,14.4244061 32.9003723,14.3672772 32.7861145,14.3496991 L32.7861145,14.3496991 L32.6938293,14.3496991 C32.5971496,14.3496991 32.5400207,14.406828 32.5224426,14.5210858 L32.5224426,14.5210858 L32.5224426,14.7847577 C32.5224426,14.8990155 32.5795715,14.9561444 32.6938293,14.9561444 L32.6938293,14.9561444 L32.7861145,14.9561444 Z M22.9116027,15.9053631 L23.162091,15.7339764 L23.0829895,15.2989178 L22.5556457,15.2989178 L22.384259,15.391203 C22.4457824,15.7339764 22.533673,15.9053631 22.6479309,15.9053631 L22.6479309,15.9053631 L22.9116027,15.9053631 Z M18.6243281,49.5566186 C18.7473749,49.5566186 18.8088984,49.4950952 18.8088984,49.3720483 L18.8088984,49.3720483 L18.8088984,48.5678491 L18.7166132,48.3964624 L18.1760859,48.4755639 C17.8596796,48.4228296 17.6795038,48.3964624 17.6355585,48.3964624 L17.6355585,48.3964624 L17.6355585,48.2118921 C17.837707,48.2118921 17.987121,48.1811303 18.0838007,48.1196069 L18.0838007,48.1196069 L18.6243281,48.2118921 C18.7473749,48.2118921 18.8088984,48.1547632 18.8088984,48.0405053 L18.8088984,48.0405053 L18.8088984,45.3510522 L18.8879999,44.90281 L18.7166132,44.8105249 L11.9929804,44.8105249 L11.096496,44.7182397 C11.096496,44.7797632 11.0393671,44.8105249 10.9251093,44.8105249 C10.8196406,44.8105249 10.7581171,44.7490014 10.740539,44.6259546 L10.740539,44.6259546 L10.740539,39.2602319 C10.740539,39.1635522 10.533996,39.0712671 10.1209101,38.9833764 L10.1209101,38.9833764 L10.2000116,38.8119897 L10.2000116,29.4911889 C10.2000116,29.3945093 10.1428827,29.3373803 10.0286249,29.3198022 L10.0286249,29.3198022 L9.0398554,29.3198022 L9.0398554,29.1352319 C9.0398554,29.0385522 9.10137883,28.9814233 9.22442571,28.9638452 L9.22442571,28.9638452 L10.0286249,28.9638452 L10.740539,28.4233178 L10.740539,26.5380639 C10.740539,26.4238061 10.5911249,26.3666772 10.2922968,26.3666772 C10.2307734,25.6459741 10.1428827,25.2856225 10.0286249,25.2856225 L10.0286249,25.2856225 L3.84551946,25.2856225 C3.74883977,25.2856225 3.69171086,25.347146 3.67413274,25.4701928 L3.67413274,25.4701928 L3.67413274,26.2743921 C4.08721868,26.2743921 4.29376165,26.4501733 4.29376165,26.8017358 L4.29376165,26.8017358 L4.29376165,28.4233178 C4.29376165,28.5375757 4.20587102,28.5947046 4.03008977,28.5947046 C3.6257929,28.937478 3.14678899,29.1176538 2.59307805,29.1352319 L2.59307805,29.1352319 L2.59307805,29.2275171 C3.31378118,29.2890405 3.67413274,29.3769311 3.67413274,29.4911889 L3.67413274,29.4911889 L3.67413274,38.9042749 C3.67413274,38.9745874 3.88067571,39.1240014 4.29376165,39.3525171 L4.29376165,39.3525171 L4.29376165,47.9482202 C4.19708196,48.1240014 4.10919133,48.2118921 4.03008977,48.2118921 L4.03008977,48.2118921 L3.22589055,48.2118921 L3.22589055,48.3964624 L4.03008977,48.3964624 C4.20587102,48.484353 4.29376165,48.5722436 4.29376165,48.6601343 L4.29376165,48.6601343 L4.29376165,49.4643335 C5.40118352,49.5258569 6.20538274,49.5566186 6.7063593,49.5566186 L6.7063593,49.5566186 L18.6243281,49.5566186 Z M33.0634845,48.9297536 C34.1796954,48.9297536 35.4233477,48.7539724 36.7944415,48.4024099 C39.6069415,47.3301442 41.6855548,45.6865895 43.0302813,43.4717458 C43.0302813,43.4102224 42.7138751,43.3794606 42.0810626,43.3794606 C42.0810626,43.282781 42.1381915,43.225652 42.2524493,43.2080739 L42.2524493,43.2080739 L43.1093829,43.2080739 L43.4653399,42.944402 L45.1132891,42.944402 L45.2846759,42.8653005 C46.3833087,40.9141286 46.9326251,38.9761403 46.9326251,37.0513356 C46.9326251,36.9194997 46.7568438,36.8360036 46.4052813,36.8008474 L46.4052813,36.8008474 L46.3261798,36.8008474 L46.1416095,36.8799489 C46.1416095,36.8272145 46.1152423,36.8008474 46.0625079,36.8008474 L46.0625079,36.8008474 L45.1923907,36.8008474 C45.095711,36.8008474 45.0385821,36.7437185 45.021004,36.6294606 C45.021004,35.5308278 44.9067462,34.9815114 44.6782305,34.9815114 L44.6782305,34.9815114 L44.5068438,34.9815114 C44.3134845,34.9815114 44.1684649,35.0078786 44.0717852,35.060613 C43.9399493,35.0078786 43.4477618,34.9815114 42.5952227,34.9815114 L42.5952227,34.9815114 L42.5952227,34.8892263 L44.6782305,34.8892263 L44.9287188,34.7178395 C44.2783282,32.248113 43.2983477,30.2837575 41.9887774,28.8247731 L41.9887774,28.8247731 L41.9887774,28.7456716 C42.1821368,28.7456716 42.3271563,28.7149099 42.423836,28.6533864 C42.423836,28.7149099 42.4502032,28.7456716 42.5029376,28.7456716 L42.5029376,28.7456716 L42.9379962,28.7456716 C43.052254,28.7456716 43.1093829,28.6885427 43.1093829,28.5742849 L43.1093829,28.5742849 L43.1093829,28.4819997 L42.6875079,28.3897145 L41.7251055,28.3897145 C41.373543,28.1611989 41.0263751,28.0469411 40.6836016,28.0469411 C39.2861407,26.9483083 38.4819415,26.3989919 38.271004,26.3989919 L38.271004,26.3989919 L38.271004,26.2276052 C38.3940509,26.2276052 38.5083087,26.201238 38.6137774,26.1485036 C37.1987384,25.2783864 35.467293,24.8433278 33.4194415,24.8433278 C30.4575274,24.8433278 28.2031329,25.3047536 26.6562579,26.2276052 L26.6562579,26.2276052 L25.7070391,26.2276052 C24.5205157,26.9483083 23.711922,27.4976247 23.2812579,27.8755544 C23.2812579,27.9898122 23.3955157,28.0469411 23.6240313,28.0469411 L23.6240313,28.0469411 L23.5449298,28.2183278 L23.6240313,28.3897145 L24.0590899,28.310613 L24.1513751,28.310613 C24.3007891,28.310613 24.4721759,28.3677419 24.6655352,28.4819997 C24.6655352,28.657781 24.2920001,28.7456716 23.5449298,28.7456716 C23.1230548,28.7456716 22.6572345,29.0928395 22.1474688,29.7871755 C20.8203204,31.8174489 20.0732501,33.8345388 19.9062579,35.838445 C19.9062579,35.8999685 19.9326251,35.9878591 19.9853595,36.1021169 C20.0468829,36.1021169 20.1347735,36.0757497 20.2490313,36.0230153 C20.3632891,36.0757497 20.4511798,36.1021169 20.5127032,36.1021169 L20.5127032,36.1021169 L20.5127032,36.4448903 C20.0468829,36.5064138 19.8139727,36.5943044 19.8139727,36.7085622 C19.8139727,36.82282 19.8711016,36.8799489 19.9853595,36.8799489 L19.9853595,36.8799489 L21.461922,36.8799489 C21.6816485,37.2842458 21.826668,37.4863942 21.8969805,37.4863942 L21.8969805,37.4863942 L25.0083087,37.4863942 C25.1225665,37.4863942 25.1796954,37.5435231 25.1796954,37.657781 L25.1796954,37.657781 L25.1796954,37.7500661 L23.8877032,37.7500661 C23.4834063,37.7500661 22.8461993,37.7808278 21.9760821,37.8423513 C21.9760821,37.7808278 21.9497149,37.7500661 21.8969805,37.7500661 L21.8969805,37.7500661 L21.8046954,37.9214528 L21.8046954,38.1851247 C21.892586,39.6001638 22.3847735,41.1602224 23.2812579,42.8653005 L23.2812579,42.8653005 L22.8461993,42.944402 L21.7255938,42.944402 C21.602547,42.944402 21.5410235,43.0322927 21.5410235,43.2080739 L21.5410235,43.2080739 L20.6840899,43.2080739 L20.6840899,43.3794606 L21.461922,43.3794606 C21.5937579,43.3794606 21.7080157,43.4102224 21.8046954,43.4717458 C22.4814532,44.4297536 23.3779376,45.3789724 24.4941485,46.319402 C25.9355548,47.5674489 27.9262774,48.4068044 30.4663165,48.8374685 C30.5278399,48.8374685 30.6157305,48.8067067 30.7299884,48.7451833 C30.9760821,48.8682302 31.4375079,48.9297536 32.1142657,48.9297536 L32.1142657,48.9297536 L33.0634845,48.9297536 Z M32.4570391,43.8145192 C32.1054766,43.8145192 31.4155352,43.6694997 30.3872149,43.3794606 L30.3872149,43.3794606 L29.345711,43.3794606 L29.345711,43.2080739 L29.8598712,43.2080739 L29.8598712,43.1157888 L29.7807696,42.944402 L30.9936602,42.944402 L31.165047,42.8653005 C31.165047,42.7861989 30.8442462,42.5269216 30.2026446,42.0874685 C29.0424884,40.9536794 28.3217852,39.6792653 28.0405352,38.2642263 L28.0405352,38.2642263 L28.0405352,37.8423513 C29.4467852,37.7808278 30.255379,37.7500661 30.4663165,37.7500661 L30.4663165,37.7500661 L30.9013751,37.8423513 C30.9013751,37.7808278 30.9321368,37.7500661 30.9936602,37.7500661 C31.0551837,37.7500661 31.1386798,37.7808278 31.2441485,37.8423513 C31.3584063,37.8423513 31.4155352,37.7808278 31.4155352,37.657781 L31.4155352,37.657781 L31.4155352,37.4863942 L30.5567494,37.4857405 C29.9531369,37.4813823 29.0880317,37.455233 27.9614337,37.4072927 C27.8823321,37.0029958 27.7944415,36.8008474 27.6977618,36.8008474 L27.6977618,36.8008474 L26.1420977,36.8008474 L26.1420977,36.5371755 L26.5639727,36.5371755 C26.6870196,36.5371755 26.748543,36.4800466 26.748543,36.3657888 L26.748543,36.3657888 L26.748543,36.194402 L26.2211993,35.838445 L26.2211993,35.6670583 C26.2211993,35.3594411 26.4233477,34.6958669 26.8276446,33.6763356 C28.3393634,31.19782 30.3037188,29.9585622 32.720711,29.9585622 C33.5468829,29.9585622 34.614754,30.3628591 35.9243243,31.1714528 C37.1108477,31.9976247 37.9765704,33.1797536 38.5214923,34.7178395 L38.5214923,34.7178395 L38.5214923,34.8101247 L37.2295001,34.8101247 C36.8252032,34.8101247 36.1879962,34.8364919 35.317879,34.8892263 L35.317879,34.8892263 L35.317879,35.060613 L38.271004,35.060613 L38.692879,35.1528981 C38.692879,36.3042653 38.8115313,36.8799489 39.048836,36.8799489 L39.048836,36.8799489 L39.6552813,36.8799489 L39.826668,36.8008474 C40.3979571,36.8711599 40.6836016,36.954656 40.6836016,37.0513356 L40.6836016,37.0513356 L40.6836016,37.7500661 C40.6836016,37.9170583 40.5122149,38.5806325 40.1694415,39.7407888 C39.2817462,41.3931325 38.271004,42.4610036 37.1372149,42.944402 C37.0756915,42.944402 36.9878009,42.9180349 36.873543,42.8653005 C36.7768634,42.9180349 36.6626055,42.944402 36.5307696,42.944402 L36.5307696,42.944402 L35.6606524,42.944402 C34.9135821,43.1201833 34.5092852,43.2080739 34.4477618,43.2080739 L34.4477618,43.2080739 L33.498543,43.2080739 L33.498543,43.3794606 L33.9336016,43.3794606 C34.0478595,43.3794606 34.1049884,43.4365895 34.1049884,43.5508474 C33.3403399,43.7266286 32.7910235,43.8145192 32.4570391,43.8145192 Z M21.1982501,37.7500661 L21.3696368,37.657781 C21.3696368,37.5611013 21.3125079,37.5039724 21.1982501,37.4863942 L21.1982501,37.4863942 L20.2490313,37.4863942 L20.2490313,37.7500661 L21.1982501,37.7500661 Z M30.9936602,39.7407888 C31.107918,39.7407888 31.165047,39.6836599 31.165047,39.569402 L31.165047,39.569402 L31.165047,39.3057302 C31.165047,39.2090505 31.107918,39.1519216 30.9936602,39.1343435 L30.9936602,39.1343435 L30.9013751,39.1343435 C30.8046954,39.1343435 30.7475665,39.1914724 30.7299884,39.3057302 L30.7299884,39.3057302 L30.7299884,39.569402 C30.7299884,39.6836599 30.7871173,39.7407888 30.9013751,39.7407888 L30.9013751,39.7407888 L30.9936602,39.7407888 Z M21.1191485,40.6900075 L21.3696368,40.5186208 L21.2905352,40.0835622 L20.7631915,40.0835622 L20.5918048,40.1758474 C20.6533282,40.5186208 20.7412188,40.6900075 20.8554766,40.6900075 L20.8554766,40.6900075 L21.1191485,40.6900075 Z"/></g></g></svg>