<?xml version="1.0" standalone="no"?>
<!DOCTYPE svg PUBLIC "-//W3C//DTD SVG 20010904//EN"
 "http://www.w3.org/TR/2001/REC-SVG-20010904/DTD/svg10.dtd">
<svg version="1.0" xmlns="http://www.w3.org/2000/svg"
 width="872.000000pt" height="872.000000pt" viewBox="0 0 872.000000 872.000000"
 preserveAspectRatio="xMidYMid meet">
<metadata>
Created by potrace 1.11, written by Peter Selinger 2001-2013
</metadata>
<g transform="translate(0.000000,872.000000) scale(0.100000,-0.100000)"
fill="#000000" stroke="none">
<path d="M3130 8648 c-413 -217 -750 -535 -997 -943 -61 -101 -147 -274 -158
-317 -5 -19 8 -34 81 -98 48 -41 94 -82 103 -91 9 -8 49 -44 90 -80 41 -35 82
-71 91 -79 9 -8 32 -29 51 -45 93 -82 476 -421 487 -432 19 -19 8 -16 -35 8
-21 12 -81 44 -133 72 -52 27 -129 68 -170 90 -41 22 -127 67 -190 99 -63 33
-137 73 -165 88 -27 15 -104 56 -170 90 -120 63 -135 71 -297 161 -48 27 -122
67 -165 90 -43 23 -90 50 -105 61 -14 10 -28 18 -31 18 -3 0 -79 41 -169 91
-90 51 -190 106 -223 124 -33 17 -78 42 -100 55 -22 12 -67 37 -100 55 -33 18
-129 72 -214 119 -85 47 -157 86 -160 86 -3 0 -11 -10 -17 -23 -6 -12 -30 -58
-53 -102 -130 -251 -258 -643 -294 -902 -4 -22 -8 -52 -11 -65 -37 -173 -41
-713 -7 -895 6 -28 12 -71 16 -97 19 -159 124 -542 190 -691 7 -16 35 -79 61
-139 70 -159 184 -360 291 -515 128 -184 393 -478 537 -596 27 -22 63 -52 80
-67 78 -69 324 -237 421 -289 22 -12 42 -23 44 -25 3 -2 -149 -301 -219 -429
-15 -27 -62 -117 -105 -200 -43 -82 -94 -181 -115 -220 -20 -38 -68 -128 -105
-200 -37 -71 -89 -170 -115 -220 -26 -49 -75 -144 -110 -210 -35 -66 -80 -151
-100 -190 -21 -38 -70 -133 -110 -210 -40 -77 -90 -171 -110 -210 -21 -38 -66
-124 -100 -190 -34 -66 -84 -160 -110 -210 -26 -49 -75 -144 -110 -210 -34
-66 -84 -160 -110 -210 -156 -297 -180 -343 -180 -352 0 -20 313 -141 410
-157 19 -3 46 -8 60 -10 140 -25 385 -37 455 -22 11 2 49 7 85 11 192 21 432
105 627 221 165 97 355 266 461 409 28 39 55 75 59 80 31 40 79 122 122 210
49 101 49 98 -16 132 -176 91 -514 291 -732 435 -118 78 -175 118 -134 94 75
-43 739 -260 983 -321 132 -34 290 -36 615 -10 39 4 81 8 95 10 14 2 50 7 80
10 30 3 62 8 70 10 8 2 35 7 60 10 35 5 176 34 235 49 6 1 26 6 45 10 142 31
472 141 605 200 17 8 53 24 80 36 724 322 1352 880 1768 1571 41 68 90 156
110 195 36 71 36 71 79 72 353 12 688 155 936 400 54 53 115 118 135 144 52
66 129 191 166 273 32 69 91 233 91 253 0 6 -26 16 -57 23 -32 7 -62 14 -68
15 -16 4 -149 32 -175 38 -73 14 -320 68 -350 76 -19 5 -51 12 -70 15 -19 3
-51 10 -70 15 -19 5 -46 11 -60 14 -14 2 -90 18 -170 35 -80 17 -156 33 -170
36 -49 9 -125 27 -147 36 -14 5 -25 4 -29 -2 -3 -6 -6 -317 -6 -691 l0 -681
-106 6 c-424 25 -829 202 -1136 496 -236 227 -392 486 -496 826 -12 40 -38
168 -46 230 -3 28 -8 59 -10 70 -11 55 -4 330 11 430 97 662 547 1214 1174
1442 53 19 103 36 111 38 8 2 33 8 55 14 76 20 190 40 260 46 39 3 90 7 114 9
24 2 50 2 57 -1 9 -3 12 -229 13 -1071 0 -587 0 -1072 0 -1078 1 -6 20 -15 44
-19 23 -4 47 -9 52 -10 11 -3 225 -50 455 -100 85 -18 178 -38 205 -44 28 -6
61 -14 75 -16 14 -3 45 -10 70 -15 80 -18 95 -22 115 -25 11 -2 94 -20 185
-40 91 -20 174 -39 185 -41 11 -2 36 -7 55 -10 19 -3 38 -8 41 -10 3 -2 19 -6
35 -8 36 -7 52 -10 139 -30 39 -9 81 -18 95 -20 14 -3 54 -11 90 -19 55 -13
364 -80 425 -93 11 -2 29 -6 40 -8 11 -2 53 -12 93 -21 73 -17 84 -16 88 8 1
7 5 28 9 47 22 117 33 283 30 465 -2 110 -6 209 -8 220 -3 12 -8 48 -12 80 -4
33 -9 69 -12 80 -2 11 -8 43 -14 70 -6 28 -13 61 -15 75 -18 91 -82 284 -139
420 -66 160 -207 397 -329 554 -76 98 -296 322 -396 403 -176 141 -415 285
-605 363 -11 4 -36 15 -55 23 -99 42 -298 99 -438 127 -185 36 -279 44 -512
44 -381 1 -630 -30 -995 -120 -151 -37 -429 -128 -518 -169 -31 -14 -58 -25
-61 -25 -18 0 -293 -135 -413 -203 l-61 -35 -20 47 c-25 57 -165 370 -194 431
-26 56 -99 216 -139 308 -12 26 -32 70 -44 97 -13 28 -44 95 -68 150 -57 128
-222 496 -249 555 -12 25 -46 101 -77 170 -65 145 -68 150 -84 150 -7 -1 -64
-28 -127 -62z"/>
<path d="M5535 5681 c-103 -28 -178 -90 -220 -182 -100 -224 64 -465 310 -455
122 5 219 68 273 179 40 81 44 174 11 264 -26 69 -98 144 -166 174 -52 23
-159 33 -208 20z"/>
</g>
</svg>
